<?xml version="1.0" standalone="no"?>
<!DOCTYPE svg PUBLIC "-//W3C//DTD SVG 1.1//EN" "http://www.w3.org/Graphics/SVG/1.1/DTD/svg11.dtd" >
<svg xmlns="http://www.w3.org/2000/svg">
<metadata>Generated by IcoMoon</metadata>
<defs>
<font id="Girolibero-iconset" horiz-adv-x="1024">
<font-face units-per-em="1024" ascent="960" descent="-64" />
<missing-glyph horiz-adv-x="1024" />
<glyph unicode="&#x20;" horiz-adv-x="512" d="" />
<glyph unicode="&#xe900;" glyph-name="facebook" d="M588.163-44.64h-203.84v492.8h-102.4v169.92h102.4v101.76c0 138.56 57.28 220.8 220.8 220.8h136v-170.88h-85.12c-64 0-67.84-23.68-67.84-68.16v-84.8h153.92l-17.92-169.92h-136v-491.52z" />
<glyph unicode="&#xe901;" glyph-name="search" d="M1015.203-32.331l-320.22 330.777c59.821 70.378 98.529 161.869 98.529 260.399 0 221.691-175.945 401.155-394.117 401.155s-390.598-175.945-390.598-394.117c0-221.691 175.945-401.155 390.598-401.155 102.048 0 193.54 38.708 260.399 102.048l320.22-330.777 35.189 31.67zM51.028 562.364c0 193.54 154.832 351.89 348.371 351.89s348.371-158.351 348.371-355.409c0-193.54-154.832-348.371-348.371-348.371s-348.371 158.351-348.371 351.89z" />
<glyph unicode="&#xe902;" glyph-name="arrow-down" d="M0 675.555l60.681 53.096 451.319-451.319 451.319 451.319 60.681-53.096-512-508.207-512 508.207z" />
<glyph unicode="&#xe903;" glyph-name="arrow-left" d="M739.555 960l53.096-60.681-451.319-451.319 451.319-451.319-53.096-60.681-508.207 512 508.207 512z" />
<glyph unicode="&#xe904;" glyph-name="arrow-up" d="M1024 222.341l-60.681-53.096-451.319 451.319-451.319-451.319-60.681 53.096 512 504.415 512-504.415z" />
<glyph unicode="&#xe905;" glyph-name="available" d="M512 174.828c-49 0-84-43.78-84-87.414 0-50.992 42-87.414 84-87.414s84 36.422 84 87.414c0 50.992-42 87.414-84 87.414zM449 364.227v466.211c0 36.422 28 65.561 63 65.561s63-29.139 63-65.561v-466.211c0-36.422-28-65.561-63-65.561s-63 29.139-63 65.561z" />
<glyph unicode="&#xe906;" glyph-name="return" d="M824.96 306.88h-529.92v-26.24h529.92v-169.92l183.040 183.040-183.040 182.72zM199.36 785.28l-183.36-183.040 183.36-182.72v169.6h529.6v26.24h-529.6z" />
<glyph unicode="&#xe907;" glyph-name="calendar" d="M914.936 815.409h-119.503v50.852c0 7.628-5.086 12.713-12.713 12.713s-12.713-5.086-12.713-12.713v-50.852h-111.875v53.395c0 7.628-5.086 12.713-12.713 12.713s-12.713-5.086-12.713-12.713v-53.395h-109.333v50.852c0 7.628-5.086 12.713-12.713 12.713s-12.713-5.086-12.713-12.713v-50.852h-106.79v50.852c0 7.628-5.086 12.713-12.713 12.713s-12.713-5.086-12.713-12.713v-50.852h-116.961v50.852c0 7.628-5.086 12.713-12.713 12.713s-12.713-2.542-12.713-10.17v-50.852h-111.875c-43.224 0-76.278-35.596-76.278-76.278v-650.91c0-43.224 35.596-76.278 76.278-76.278h800.924c43.224 0 76.278 35.596 76.278 76.278v648.367c2.542 43.224-33.054 76.278-73.736 76.278zM965.789 88.221c0-27.969-22.884-50.852-50.852-50.852h-803.466c-27.969 0-50.852 22.884-50.852 50.852v650.91c0 27.969 22.884 50.852 50.852 50.852h111.875v-63.565c0-7.628 5.086-12.713 12.713-12.713s12.713 5.086 12.713 12.713v63.565h116.961v-63.565c0-7.628 5.086-12.713 12.713-12.713s12.713 5.086 12.713 12.713v63.565h106.79v-63.565c0-7.628 5.086-12.713 12.713-12.713s12.713 5.086 12.713 12.713v63.565h109.333v-61.023c0-7.628 5.086-12.713 12.713-12.713s12.713 5.086 12.713 12.713v61.023h111.875v-63.565c0-7.628 5.086-12.713 12.713-12.713s12.713 5.086 12.713 12.713v63.565h119.503c27.969 0 50.852-22.884 50.852-50.852v-650.91zM861.542 609.457h-696.677c-12.713 0-22.884-10.17-22.884-22.884v-475.469c0-12.713 10.17-22.884 22.884-22.884h699.219c12.713 0 22.884 10.17 22.884 22.884v475.469c0 12.713-12.713 22.884-25.426 22.884zM164.865 423.846h155.099v-144.929h-155.099v144.929zM345.39 423.846h155.099v-144.929h-155.099v144.929zM500.491 449.272h-155.099v134.759h155.099v-134.759zM525.916 584.031h155.099v-134.759h-155.099v134.759zM500.491 253.491v-139.843h-155.099v139.843h155.099zM525.916 253.491h155.099v-139.843h-155.099v139.843zM525.916 278.917v144.929h155.099v-144.929h-155.099zM706.442 423.846h155.099v-144.929h-155.099v144.929zM861.542 449.272h-155.099v134.759h155.099v-134.759zM319.964 584.031v-134.759h-155.099v134.759h155.099zM164.865 253.491h155.099v-139.843h-155.099v139.843zM706.442 113.647v139.843h155.099v-139.843h-155.099z" />
<glyph unicode="&#xe908;" glyph-name="thumbnail" d="M32 526.703v401.297h403.478v-401.297h-403.478zM32-32v401.297h403.478v-401.297h-403.478zM588.522 526.703v401.297h403.478v-401.297h-403.478zM588.522-32v401.297h403.478v-401.297h-403.478z" />
<glyph unicode="&#xe909;" glyph-name="girolibero" d="M480.972 318.512c34.647-97.729 129.436-165.3 233.322-165.3 25.088 0 49.875 3.753 73.669 11.17 3.843 1.209 7.694 2.515 11.443 3.876 7.541 2.764 15.010 5.956 22.272 9.431 10.795 5.249 21.25 11.262 31.050 17.902 19.794 13.407 37.504 29.536 52.672 47.929 12.719 15.456 23.515 32.359 32.14 50.326v-0.033c16.188 33.754 24.408 69.957 24.408 107.651 0 37.668-8.22 73.903-24.408 107.628-8.626 17.902-19.421 34.844-32.14 50.322-15.2 18.425-32.911 34.53-52.64 47.905-9.862 6.667-20.318 12.719-31.083 17.902-7.071 3.408-14.58 6.601-22.272 9.431-3.784 1.392-7.665 2.698-11.443 3.903-40.417 12.564-83.442 14.522-124.976 5.743l-0.032-143.398-181.982-182.396zM54.303 524.147l279.192-277.843 279.322 277.779 0.033 126.444-4.84 15.087-77.505 77.145h-93.964l-85.842-85.388h-34.21l-85.875 85.42h-93.959l-82.344-81.889v-136.751zM442.941 276.664l-108.878-108.364-334.064 332.721v182.064l114.523 114.005 139.551-0.032 80.085-79.736 80.087 79.736 139.544-0.032 100.326-99.908c51.668 11.405 106.077 9.089 156.213-6.472 4.648-1.429 9.419-3.009 14.164-4.746 9.264-3.376 18.468-7.254 27.269-11.465 13.159-6.32 26.015-13.666 38.214-21.879 24.24-16.334 45.984-35.977 64.578-58.386 15.597-18.841 28.888-39.478 39.468-61.324 19.903-41.125 29.98-85.278 29.98-131.238 0-45.954-10.076-90.116-29.98-131.238-10.583-21.871-23.872-42.483-39.468-61.324-18.62-22.467-40.338-42.11-64.578-58.412-12.044-8.12-24.9-15.466-38.188-21.818-8.827-4.245-18.002-8.15-27.297-11.523-4.681-1.708-9.451-3.288-14.164-4.739-29.203-9.056-59.652-13.644-90.442-13.644-119.208 0-228.027 70.628-276.944 177.755z" />
<glyph unicode="&#xe90a;" glyph-name="tick" d="M320.285 223.66l603.625 603.625c22.897 22.897 60.020 22.897 82.917 0s22.897-60.020 0-82.917l-693.020-692.827-89.395 89.201-207.24 207.24c-22.897 22.897-22.897 60.020 0 82.917s60.020 22.897 82.917 0l213.717-213.703 6.478 6.464z" />
<glyph unicode="&#xe90b;" glyph-name="favourite" d="M514.019 763.534l129.124 129.124h189.002l157.483-157.483v-254.206l-477.627-477.627-477.627 477.627v254.206l157.483 157.483h189.002l129.124-129.124h4.040z" />
<glyph unicode="&#xe90c;" glyph-name="favourite-border" d="M831.18 889.302h-185.958l-130.448-130.448h-5.551l-130.448 130.448h-185.958l-158.202-155.428v-252.57l477.384-474.608 477.384 477.384v249.794l-158.202 155.428zM961.628 492.407l-449.629-446.853-449.629 446.853v230.366l141.55 141.55h163.754l130.448-130.448h27.754l130.448 130.448h163.754l141.55-141.55v-230.366z" />
<glyph unicode="&#xe90d;" glyph-name="rating" d="M511.833 935.903l-121.81-371.72h-390.256l315.78-230.38-121.81-373.706 318.097 230.711 317.435-230.711-121.81 373.706 316.773 230.38h-391.249z" />
<glyph unicode="&#xe90e;" glyph-name="close" d="M593.109 448l430.891-430.891-81.109-81.109-430.891 430.891-430.891-430.891-81.109 81.109 430.891 430.891-430.891 430.891 81.109 81.109 430.891-430.891 430.891 430.891 81.109-81.109-430.891-430.891z" />
<glyph unicode="&#xe90f;" glyph-name="info" d="M631.814 549.581c0-62.512-46.883-112-106.791-119.814v-75.536c0-7.814-5.209-13.024-13.024-13.024s-13.024 5.209-13.024 13.024v88.557c0 7.814 5.209 13.024 13.024 13.024 52.093 0 93.767 41.674 93.767 93.767s-41.674 93.767-93.767 93.767c-28.651 0-46.883-2.605-59.907-15.628-18.233-13.024-28.651-31.255-33.86-52.093-2.605-7.814-7.814-10.419-15.628-10.419-7.814 2.605-10.419 7.814-10.419 15.628 5.209 28.651 20.838 52.093 41.674 67.721 18.233 15.628 44.279 20.838 78.14 20.838 67.721 0 119.814-54.698 119.814-119.814zM517.209 278.698c-10.419 0-20.838-10.419-20.838-20.838s10.419-20.838 20.838-20.838c10.419 0 20.838 10.419 20.838 20.838-2.605 13.024-10.419 20.838-20.838 20.838zM960 448c0-247.443-200.557-448-448-448s-448 200.557-448 448c0 247.443 200.557 448 448 448s448-200.557 448-448zM933.953 448c0 231.814-190.14 421.953-421.953 421.953s-421.953-190.14-421.953-421.953c0-231.814 190.14-421.953 421.953-421.953s421.953 190.14 421.953 421.953z" />
<glyph unicode="&#xe910;" glyph-name="banner" d="M161.226 960v-194.289l516.544-317.113-516.544-317.154v-195.444l701.548 442.008v139.984z" />
<glyph unicode="&#xe911;" glyph-name="location" d="M509.38 895.999c-191.251 0-345.824-154.573-345.824-345.824 0-78.597 26.2-154.573 75.976-214.83l261.989-330.105c2.62-2.62 5.24-5.24 10.479-5.24s7.86 2.62 10.479 5.24l261.989 330.105c49.777 62.878 75.976 136.234 75.976 214.83-5.24 191.251-159.813 345.824-351.064 345.824zM760.889 351.063l-251.509-317.006-251.509 317.006c-44.539 57.637-68.117 125.755-68.117 199.112 0 175.532 141.474 319.627 319.627 319.627s319.627-144.094 319.627-319.627c0-73.356-23.579-141.474-68.117-199.112zM509.38 675.928c-70.736 0-128.373-57.637-128.373-128.373s57.637-125.755 128.373-125.755 128.373 57.637 128.373 128.373-57.637 125.755-128.373 125.755zM509.38 447.999c-55.017 0-102.176 44.539-102.176 102.176s44.539 102.176 102.176 102.176c55.017 0 102.176-44.539 102.176-102.176s-47.159-102.176-102.176-102.176z" />
<glyph unicode="&#xe912;" glyph-name="phone" d="M942.823 206.519l-128.973 126.229c-21.954 21.954-57.627 21.954-82.322 0l-52.137-52.137c-10.976-10.976-30.185-10.976-43.905 0l-301.851 299.106c-10.976 10.976-10.976 30.185 0 43.905l46.649 46.649c10.976 10.976 16.464 24.698 16.464 41.161s-5.488 30.185-16.464 41.161l-128.973 126.229c-21.954 21.954-57.627 21.954-82.322 0l-87.811-96.044c-13.72-16.464-21.954-38.417-13.72-57.627 161.903-430.823 603.702-686.024 716.21-718.954 5.488-2.744 10.976-2.744 16.464-2.744 13.72 0 30.185 5.488 41.161 16.464l104.276 104.276c19.209 21.954 19.209 57.627-2.744 82.322zM923.616 143.404l-104.276-104.276c-8.232-8.232-19.209-10.976-30.185-8.232-107.020 32.929-537.843 282.642-697.002 702.49-2.744 10.976 0 21.954 8.232 30.185l93.3 93.3c5.488 5.488 13.72 8.232 21.954 8.232s16.464-2.744 21.954-8.232l128.973-126.229c5.488-5.488 8.232-13.72 8.232-21.954s-2.744-16.464-8.232-21.954l-49.393-46.649c-21.954-21.954-21.954-57.627 0-82.322l301.851-299.106c21.954-21.954 60.371-21.954 82.322 0l52.137 52.137c10.976 10.976 30.185 10.976 43.905 0l128.973-126.229c5.488-5.488 8.232-13.72 8.232-21.954s-5.488-13.72-10.976-19.209zM676.647 856.871c2.744 8.232 8.232 10.976 16.464 10.976 60.371-13.72 117.996-46.649 161.903-87.811 43.905-43.905 74.091-98.788 90.556-161.903 2.744-8.232-2.744-13.72-10.976-16.464 0 0-2.744 0-2.744 0-5.488 0-10.976 5.488-13.72 10.976-13.72 57.627-43.905 109.764-82.322 148.181-41.161 38.417-90.556 68.603-148.181 82.322-8.232-2.744-13.72 5.488-10.976 13.72zM651.949 752.596c0 5.488 5.488 10.976 10.976 10.976 2.744 0 2.744 0 5.488 0 0 0 0 0 0 0s0 0 0 0 0 0 0 0c5.488-2.744 10.976-2.744 19.209-5.488 24.698-8.232 49.393-19.209 68.603-35.673 8.232-5.488 16.464-13.72 24.698-19.209 30.185-30.185 52.137-68.603 63.115-109.764 2.744-8.232-2.744-13.72-10.976-16.464 0 0-2.744 0-2.744 0s0 0 0 0 0 0 0 0c-5.488 0-10.976 5.488-13.72 10.976-10.976 38.417-27.441 71.347-54.883 98.788-5.488 5.488-13.72 13.72-21.954 19.209-19.209 13.72-38.417 24.698-60.371 30.185-5.488 2.744-10.976 2.744-16.464 5.488-8.232-2.744-13.72 5.488-10.976 10.976zM627.252 648.32c0 2.744 0 2.744 0 5.488 2.744 8.232 8.232 10.976 16.464 10.976 24.698-5.488 46.649-19.209 63.115-35.673s30.185-38.417 35.673-63.115c0-2.744 0-2.744 0-5.488 0-5.488-5.488-10.976-10.976-10.976 0 0-2.744 0-2.744 0-5.488 0-10.976 5.488-13.72 10.976-5.488 19.209-13.72 35.673-27.441 49.393s-30.185 21.954-49.393 27.441c-8.232 0-10.976 5.488-10.976 10.976z" />
<glyph unicode="&#xe913;" glyph-name="instagram" d="M512 959.175c139.026 0 156.468-0.604 211.111-3.070 54.492-2.466 91.743-11.122 124.257-23.755 33.673-13.085 62.204-30.549 90.685-58.984s46.023-56.87 59.079-90.539c12.602-32.512 21.272-69.652 23.793-124.107 2.47-54.504 3.075-71.917 3.075-210.72 0-138.853-0.605-156.216-3.075-210.77-2.521-54.354-11.191-91.546-23.793-124.056-13.056-33.619-30.598-62.154-59.079-90.539-28.481-28.435-57.012-45.899-90.685-58.984-32.514-12.632-69.766-21.288-124.257-23.704-54.642-2.567-72.084-3.12-211.111-3.12s-156.468 0.553-211.111 3.12c-54.492 2.415-91.743 11.072-124.257 23.704-33.673 13.085-62.254 30.549-90.685 58.984-28.481 28.385-46.023 56.92-59.079 90.539-12.602 32.512-21.272 69.704-23.793 124.056-2.47 54.555-3.075 71.917-3.075 210.77 0 138.803 0.605 156.216 3.075 210.72 2.521 54.454 11.191 91.596 23.793 124.107 13.056 33.669 30.598 62.104 59.079 90.539 28.43 28.435 57.012 45.899 90.685 58.984 32.514 12.632 69.766 21.288 124.257 23.755 54.642 2.466 72.084 3.070 211.111 3.070zM512 867.076c-136.758 0-152.888-0.503-206.927-2.97-49.854-2.265-77.024-10.619-95.071-17.615-23.843-9.31-40.932-20.332-58.826-38.199-17.946-17.917-29.036-34.977-38.311-58.832-7.057-17.967-15.324-45.042-17.593-94.917-2.47-53.9-3.025-70.056-3.025-206.543s0.554-152.693 3.025-206.543c2.268-49.824 10.535-76.9 17.593-94.917 9.275-23.905 20.365-40.865 38.311-58.782 17.895-17.867 34.983-28.989 58.826-38.249 18.046-6.995 45.217-15.35 95.071-17.615 54.038-2.466 70.169-2.97 206.927-2.97 136.708 0 152.888 0.503 206.927 2.97 49.854 2.265 77.024 10.619 95.071 17.615 23.843 9.26 40.932 20.382 58.826 38.249 17.946 17.917 29.036 34.877 38.311 58.782 7.007 18.017 15.324 45.093 17.593 94.917 2.47 53.85 3.025 70.056 3.025 206.543s-0.554 152.643-3.025 206.543c-2.268 49.874-10.586 76.95-17.593 94.917-9.275 23.855-20.365 40.916-38.311 58.832-17.895 17.867-34.983 28.888-58.826 38.199-18.046 6.995-45.217 15.35-95.071 17.615-54.038 2.466-70.219 2.97-206.927 2.97zM523.674 265.568c94.264 0 170.683 76.246 170.683 170.358s-76.419 170.408-170.683 170.408c-94.264 0-170.683-76.296-170.683-170.408s76.419-170.358 170.683-170.358zM523.674 698.433c145.176 0 262.93-117.564 262.93-262.507s-117.754-262.457-262.93-262.457c-145.176 0-262.93 117.514-262.93 262.457s117.754 262.507 262.93 262.507zM856.236 718.565c0-33.92-27.523-61.349-61.448-61.349s-61.448 27.428-61.448 61.349c0 33.92 27.523 61.349 61.448 61.349s61.448-27.428 61.448-61.349z" />
<glyph unicode="&#xe914;" glyph-name="youtube" d="M511.975 960.245c276.729 0 501.021-229.328 501.021-512.269s-224.293-512.217-501.021-512.217c-276.679 0-500.971 229.277-500.971 512.217s224.293 512.269 500.971 512.269zM853.466 420.288v50.939c0 54.318-6.819 108.688-6.819 108.688s-6.719 46.249-27.178 66.625c-26.016 26.781-55.164 26.882-68.551 28.446-95.678 6.808-239.245 6.808-239.245 6.808h-0.303c0 0-143.568 0-239.245-6.808-13.386-1.563-42.534-1.664-68.551-28.446-20.51-20.376-27.178-66.625-27.178-66.625s-6.819-54.369-6.819-108.688v-50.939c0-54.318 6.819-108.688 6.819-108.688s6.669-46.249 27.178-66.625c26.016-26.781 60.165-25.924 75.421-28.698 54.709-5.195 232.528-6.758 232.528-6.758s143.719 0.202 239.397 7.010c13.386 1.563 42.534 1.664 68.551 28.446 20.459 20.376 27.178 66.625 27.178 66.625s6.819 54.369 6.819 108.688zM386.624 290.66v310.295l310.295-155.694-310.295-154.602z" />
<glyph unicode="&#xe915;" glyph-name="share" d="M532.406 878.366v-546.773h-40.96v546.809l-119.145-111.22-27.95 29.942 167.548 156.403 167.6-156.401-27.945-29.946-119.147 111.186zM819.126 597.833h-206.624v40.96h247.584v-696.32h-696.32v696.32h256.721v-40.96h-215.761v-614.4h614.4v614.4z" />
<glyph unicode="&#xe916;" glyph-name="phone-chat" d="M685.133 0.001c-5.019 0-7.529 0-12.55 2.51-80.313 25.097-396.549 208.313-514.509 519.53-5.019 12.55-2.51 32.627 10.039 45.176l67.765 67.765c17.568 17.568 45.176 17.568 62.745 0l90.353-90.353c17.568-17.568 17.568-45.176 0-62.745l-35.137-35.137c-2.51-2.51-5.019-7.529-5.019-12.55s2.51-10.039 5.019-12.55l215.844-215.844c7.529-7.529 20.079-7.529 27.608 0l37.647 37.647c17.568 17.568 45.176 17.568 62.745 0l90.353-90.353c7.529-7.529 12.55-20.079 12.55-30.118s-5.019-22.589-12.55-30.118l-75.294-75.294c-5.019-12.55-17.568-17.568-27.608-17.568zM268.505 622.433c-5.019 0-10.039-2.51-12.55-5.019l-67.765-67.765c-5.019-5.019-7.529-12.55-5.019-17.568 112.942-303.686 421.646-481.883 496.941-504.47 7.529-2.51 12.55 0 17.568 5.019l75.294 75.294c2.51 2.51 5.019 7.529 5.019 12.55s-2.51 10.039-5.019 12.55l-92.863 90.353c-7.529 7.529-20.079 7.529-27.608 0l-37.647-37.647c-17.568-17.568-45.176-17.568-62.745 0l-215.844 215.844c-7.529 7.529-12.55 20.079-12.55 30.118s5.019 22.589 12.55 30.118l35.137 35.137c2.51 2.51 5.019 7.529 5.019 12.55s-2.51 10.039-5.019 12.55l-90.353 90.353c-2.51 7.529-7.529 10.039-12.55 10.039zM662.546 489.413h-163.137c-7.529 0-12.55 5.019-15.058 10.039-2.51 7.529 0 15.058 5.019 20.079l32.627 27.608c-37.647 37.647-60.235 90.353-60.235 145.568 0 112.942 90.353 203.294 203.294 203.294s203.294-90.353 203.294-203.294c0-110.431-92.863-203.294-205.804-203.294zM504.428 501.962v0c0 0 0 0 0 0zM521.996 514.51h140.549c97.882 0 178.197 80.313 178.197 178.197s-80.313 178.197-178.197 178.197c-97.882 0-178.197-80.313-178.197-178.197 0-52.705 22.589-102.902 62.745-135.529 2.51-2.51 5.019-5.019 5.019-10.039 0-2.51-2.51-7.529-5.019-10.039l-25.097-22.589zM602.31 695.217c0-9.703-7.865-17.568-17.568-17.568s-17.568 7.865-17.568 17.568c0 9.703 7.865 17.568 17.568 17.568s17.568-7.865 17.568-17.568zM682.625 695.217c0-9.703-7.865-17.568-17.568-17.568s-17.568 7.865-17.568 17.568c0 9.703 7.865 17.568 17.568 17.568s17.568-7.865 17.568-17.568zM760.427 695.217c0-9.703-7.865-17.568-17.568-17.568s-17.568 7.865-17.568 17.568c0 9.703 7.865 17.568 17.568 17.568s17.568-7.865 17.568-17.568z" />
<glyph unicode="&#xe917;" glyph-name="support" d="M558.647 616.15c0-14.729-12.273-24.551-24.551-24.551-14.729 0-24.551 12.273-24.551 24.551 0 14.729 12.273 24.551 24.551 24.551s24.551-9.823 24.551-24.551zM649.473 640.703c-14.729 0-24.551-12.273-24.551-24.551 0-14.729 12.273-24.551 24.551-24.551 14.729 0 24.551 12.273 24.551 24.551 0 14.729-12.273 24.551-24.551 24.551zM764.853 640.703c-14.729 0-24.551-12.273-24.551-24.551 0-14.729 12.273-24.551 24.551-24.551 14.729 0 24.551 12.273 24.551 24.551 0 14.729-9.823 24.551-24.551 24.551zM902.32 346.128c7.364-4.909 7.364-14.729 4.909-22.093s-9.823-12.273-17.187-12.273h-225.843c0-7.364 0-14.729 0-19.638 0-162.013-130.105-292.121-289.669-292.121h-240.571c-7.364 0-14.729 4.909-17.187 12.273s0 17.187 4.909 22.093l54.007 44.187c-58.916 54.007-90.827 132.562-90.827 211.111 0 157.108 122.741 282.305 274.941 292.121 0 4.909 0 9.823 0 14.729v7.364c0 162.013 130.105 292.121 289.669 292.121s289.669-130.105 289.669-292.121c0-81.013-31.915-157.108-90.827-211.111l54.007-46.643zM639.654 289.667c0 147.29-117.834 267.577-265.119 267.577s-265.119-120.285-265.119-267.577c0-78.553 34.367-152.199 93.282-203.747 2.459-2.459 4.909-4.909 4.909-9.823 0-2.459-2.459-7.364-4.909-9.823l-54.007-46.643h225.843c147.29 2.459 265.119 122.741 265.119 270.028zM875.315 336.304l-54.007 46.643c-2.459 2.459-4.909 4.909-4.909 9.823s2.459 7.364 4.909 9.823c58.916 51.551 93.282 125.198 93.282 203.747 0 147.29-117.834 267.577-265.119 267.577s-265.119-122.741-265.119-270.028v-7.364c0-4.909 0-9.823 0-14.729 139.926-4.909 255.299-110.469 277.392-245.485h213.568zM259.153 316.67c-14.729 0-24.551-12.273-24.551-24.551 0-14.729 12.273-24.551 24.551-24.551 14.729 0 24.551 12.273 24.551 24.551s-9.823 24.551-24.551 24.551zM374.534 316.67c-14.729 0-24.551-12.273-24.551-24.551 0-14.729 12.273-24.551 24.551-24.551 14.729 0 24.551 12.273 24.551 24.551s-9.823 24.551-24.551 24.551zM489.911 316.67c-14.729 0-24.551-12.273-24.551-24.551 0-14.729 12.273-24.551 24.551-24.551 14.729 0 24.551 12.273 24.551 24.551 2.459 12.273-9.823 24.551-24.551 24.551z" />
<glyph unicode="&#xe918;" glyph-name="advice" d="M854.143 858.002h-585.717c-90.786 0-166.929-84.929-169.858-184.501l-8.786-442.216-87.858-169.858c-2.929-5.857-2.929-11.714 2.929-17.572 0-2.929 5.857-5.857 8.786-5.857s2.929 0 5.857 0l210.858 67.357 626.717 14.643c93.715 0 166.929 84.929 166.929 190.358v357.287c0 105.429-76.143 190.358-169.858 190.358zM994.716 310.356c0-87.858-61.5-158.144-140.572-161.072l-629.646-14.643c0 0-2.929 0-2.929 0l-178.644-55.643 73.215 140.572c0 2.929 2.929 2.929 2.929 5.857l8.786 445.145c0 87.858 64.429 158.144 140.572 158.144h585.717c79.072 0 140.572-70.286 140.572-161.072v-357.287zM408.999 459.714c0-23.429-20.5-43.929-43.929-43.929s-43.929 20.5-43.929 43.929c0 23.429 20.5 43.929 43.929 43.929 26.357 0 43.929-20.5 43.929-43.929zM590.571 459.714c0-23.429-20.5-43.929-43.929-43.929s-43.929 20.5-43.929 43.929c0 23.429 20.5 43.929 43.929 43.929s43.929-20.5 43.929-43.929zM769.215 459.714c0-23.429-20.5-43.929-43.929-43.929s-43.929 20.5-43.929 43.929c0 23.429 20.5 43.929 43.929 43.929 26.357 0 43.929-20.5 43.929-43.929z" />
<glyph unicode="&#xe919;" glyph-name="howtobook" d="M581.58 626.266c-7.339 4.893-19.571 4.893-26.91-2.446l-381.631-278.884c-7.339-4.893-12.231-14.679-9.785-22.016 2.446-9.785 7.339-17.125 17.125-19.571l110.086-36.695-122.317-188.369c-7.339-12.231-2.446-26.91 7.339-34.25l73.391-41.587c4.893-2.446 7.339-2.446 12.231-2.446 7.339 0 17.125 4.893 22.016 12.231l119.872 190.815 83.176-85.622c7.339-7.339 14.679-9.785 24.464-7.339s14.679 9.785 17.125 19.571l66.051 474.592c0 7.339-4.893 17.125-12.231 22.016zM503.298 129.657l-83.176 85.622c-4.893 4.893-12.231 7.339-19.571 7.339s-14.679-4.893-17.125-12.231l-119.872-190.815-70.945 41.587 122.317 190.815c4.893 7.339 4.893 14.679 2.446 22.016s-7.339 12.231-14.679 14.679l-110.086 36.695 381.631 281.33-70.945-477.038zM324.714 741.244c-4.893 4.893-2.446 12.231 2.446 17.125s12.231 2.446 17.125-2.446l53.82-70.945c4.893-4.893 2.446-12.231-2.446-17.125-2.446-2.446-4.893-2.446-7.339-2.446-4.893 0-7.339 2.446-9.785 4.893l-53.82 70.945zM493.512 755.923l-24.464 124.763c-2.446 7.339 2.446 12.231 9.785 14.679s12.231-2.446 14.679-9.785l24.464-124.763c2.446-7.339-2.446-12.231-9.785-14.679 0 0-2.446 0-2.446 0-4.893 0-9.785 4.893-12.231 9.785zM728.362 843.991l-61.159-102.747c-2.446-4.893-7.339-4.893-9.785-4.893s-4.893 0-7.339 2.446-7.339 9.785-4.893 17.125l61.159 102.747c2.446 4.893 9.785 7.339 17.125 4.893 4.893-4.893 7.339-12.231 4.893-19.571zM853.125 640.943l-112.532-31.802c0 0-2.446 0-2.446 0-4.893 0-9.785 2.446-12.231 9.785s2.446 12.231 7.339 14.679l112.532 31.802c7.339 2.446 12.231-2.446 14.679-7.339 2.446-9.785 0-14.679-7.339-17.125zM818.875 455.021c-2.446-4.893-7.339-9.785-12.231-9.785-2.446 0-2.446 0-4.893 0l-85.622 29.356c-7.339 2.446-9.785 9.785-7.339 14.679 2.446 7.339 9.785 9.785 14.679 7.339l85.622-29.356c7.339 0 12.231-7.339 9.785-12.231z" />
<glyph unicode="&#xe91a;" glyph-name="history" d="M957.724 850.813c-2.854 5.708-5.708 8.561-11.413 8.561-353.837 88.459-616.363-159.798-619.216-162.651s-5.708-5.708-5.708-11.413v-102.728l-65.632 34.242c-5.708 2.854-11.413 2.854-17.121-2.854-111.287-105.58-131.262-179.773-131.262-182.625s0-5.708 0-8.561l25.682-54.217-31.388 14.267c-8.561 2.854-14.267 0-19.975-8.561-51.363-122.703 39.95-196.894 65.632-214.015-48.509-71.338-74.191-119.849-74.191-119.849-2.854-5.708 0-14.267 5.708-19.975 2.854 0 5.708-2.854 5.708-2.854 5.708 0 11.413 2.854 11.413 8.561 0 2.854 25.682 48.509 74.191 119.849 25.682-14.267 54.217-22.829 82.753-22.829 17.121 0 31.388 2.854 48.509 5.708 154.091 39.95 291.060 251.111 291.060 251.111 2.854 2.854 2.854 8.561 0 11.413 0 2.854-2.854 5.708-8.561 8.561l-34.242 17.121 51.363-2.854c5.708 0 8.561 2.854 11.413 5.708l342.423 416.615c2.854 5.708 2.854 8.561 2.854 14.267zM104.52 348.593l51.363-22.829c5.708-2.854 11.413 0 17.121 2.854 2.854 2.854 5.708 11.413 2.854 17.121l-37.096 82.753c5.708 17.121 31.388 77.045 116.995 156.944l77.045-39.95c5.708-2.854 8.561-2.854 14.267 0 2.854 2.854 5.708 8.561 5.708 11.413v119.849c31.388 28.535 245.403 205.454 530.756 162.651-359.544-191.186-599.242-485.101-721.942-659.165-17.121 14.267-91.312 71.338-57.071 168.358zM601.034 442.759l-114.141 8.561c-5.708 0-14.267-2.854-14.267-11.413-2.854-5.708 0-14.267 8.561-17.121l82.753-42.803c-31.388-45.657-151.237-202.6-273.939-228.282-37.096-8.561-68.484-2.854-99.874 14.267 119.849 174.065 359.544 465.126 719.088 653.458l-308.181-376.665z" />
<glyph unicode="&#xe91b;" glyph-name="luggage" d="M1008.94 759.718h-69.271c-24.094 0-45.176-21.082-45.176-45.176v-466.824c0-6.024-6.024-12.047-12.047-12.047h-867.388c-9.035 0-15.059-6.024-15.059-15.059s6.024-15.059 15.059-15.059h120.471c-15.059-15.059-24.094-36.141-24.094-60.235 0-48.188 39.153-90.353 90.353-90.353s90.353 39.153 90.353 90.353c0 24.094-9.035 45.176-24.094 60.235h397.553c-15.059-15.059-24.094-36.141-24.094-60.235 0-48.188 39.153-90.353 90.353-90.353s90.353 39.153 90.353 90.353c0 24.094-9.035 45.176-24.094 60.235h84.329c24.094 0 42.165 18.071 42.165 42.165v469.835c0 9.035 6.024 15.059 15.059 15.059h69.271c9.035 0 15.059 6.024 15.059 15.059s-6.024 12.047-15.059 12.047zM201.787 85.082c-33.129 0-60.235 27.106-60.235 60.235s27.106 60.235 60.235 60.235c33.129 0 60.235-27.106 60.235-60.235s-27.106-60.235-60.235-60.235zM731.858 85.082c-33.129 0-60.235 27.106-60.235 60.235s27.106 60.235 60.235 60.235 60.235-27.106 60.235-60.235-27.106-60.235-60.235-60.235zM168.658 307.953h602.353c21.082 0 39.153 18.071 39.153 39.153v373.459c0 21.082-18.071 39.153-39.153 39.153h-189.741v48.188c0 18.071-15.059 33.129-33.129 33.129h-159.624c-18.071 0-33.129-15.059-33.129-33.129v-48.188h-186.729c-21.082 0-39.153-18.071-39.153-39.153v-370.447c-3.012-24.094 15.059-42.165 39.153-42.165zM780.046 720.565v-370.447c0-6.024-6.024-9.035-9.035-9.035h-57.224v391.529h57.224c6.024-3.012 9.035-6.024 9.035-12.047zM379.481 807.906c0 3.012 3.012 3.012 3.012 3.012h159.624c3.012 0 3.012-3.012 3.012-3.012v-51.2h-168.659v51.2zM683.67 729.6v-391.529h-439.718v391.529h439.718zM156.611 720.565c0 6.024 6.024 9.035 9.035 9.035h48.188v-391.529h-45.176c-6.024 0-9.035 6.024-9.035 9.035v373.459z" />
<glyph unicode="&#xe91c;" glyph-name="overnight-stay" d="M1012.077 288.199l-78.334 272.603v241.269c0 34.467-28.2 62.667-62.667 62.667h-714.408c-34.467 0-62.667-28.2-62.667-62.667v-241.269l-72.067-266.336c-12.533-15.667-21.934-34.467-21.934-56.401v-175.469c0-18.8 15.667-31.334 31.334-31.334h47c18.8 0 31.334 15.667 31.334 31.334v31.334h802.142v-31.334c0-18.8 15.667-31.334 31.334-31.334h47c18.8 0 31.334 15.667 31.334 31.334v175.469c6.267 18.8 0 34.467-9.4 50.134zM225.602 482.468h203.669c31.334 0 53.267 25.067 53.267 53.267v9.4h62.667v-9.4c0-31.334 25.067-53.267 53.267-53.267h203.669c31.334 0 53.267 25.067 53.267 53.267v9.4h47l62.667-225.602c-9.4 3.133-21.934 6.267-31.334 6.267h-842.876c-9.4 0-18.8-3.133-28.2-6.267l59.534 222.469h47v-9.4c0-25.067 25.067-50.134 56.401-50.134zM200.535 535.735v103.401c0 12.533 9.4 21.934 21.934 21.934h203.669c12.533 0 21.934-9.4 21.934-21.934v-103.401c0-12.533-9.4-21.934-21.934-21.934h-203.669c-9.4 0-21.934 9.4-21.934 21.934zM576.539 535.735v103.401c0 12.533 9.4 21.934 21.934 21.934h203.669c12.533 0 21.934-9.4 21.934-21.934v-103.401c0-12.533-9.4-21.934-21.934-21.934h-203.669c-9.4 0-21.934 9.4-21.934 21.934zM31.334 238.065c0 31.334 25.067 56.401 56.401 56.401h849.142c31.334 0 56.401-25.067 56.401-56.401v-112.801h-961.943v112.801zM125.335 802.071c0 18.8 15.667 31.334 31.334 31.334h714.408c18.8 0 31.334-15.667 31.334-31.334v-225.602h-43.867v62.667c0 31.334-25.067 53.267-53.267 53.267h-203.669c-31.334 0-53.267-25.067-53.267-53.267v-62.667h-62.667v62.667c0 31.334-25.067 53.267-53.267 53.267h-203.669c-31.334 0-53.267-25.067-53.267-53.267v-62.667h-50.134v225.602zM81.467 62.597h-50.134v31.334h50.134v-31.334zM996.41 62.597h-50.134v31.334h50.134v-31.334z" />
<glyph unicode="&#xe91d;" glyph-name="insurance" d="M886.981 791.763c0 4.918-2.458 9.835-7.376 9.835-4.918 2.458-9.835 2.458-12.295 0-7.376-4.918-204.087-122.944-341.786 88.52-2.458 2.458-4.918 4.918-7.376 4.918-4.918 2.458-12.295 0-14.753-4.918-22.129-34.424-140.157-196.711-344.244-93.438-4.918 2.458-7.376 2.458-12.295 0s-7.376-4.918-7.376-9.835l-2.458-297.525c4.918-51.637 7.376-83.601 17.213-118.027 44.261-189.334 164.745-314.738 356.539-371.292 0 0 2.458 0 2.458 0s2.458 0 2.458 0c373.751 110.649 363.915 452.435 363.915 454.895l7.376 336.868zM513.229 24.59c-181.958 56.554-292.607 172.123-336.868 351.621-7.376 34.424-12.295 63.931-17.213 113.109l4.918 277.854c191.793-83.601 312.278 46.719 349.162 95.896 125.404-174.581 290.149-118.027 346.703-90.979l-4.918-317.196c0-2.458 9.835-324.573-341.786-430.306zM719.776 609.805c4.918-4.918 4.918-12.295 2.458-17.213l-216.382-265.559c-2.458-2.458-4.918-4.918-9.835-4.918-2.458 0-4.918 0-7.376 2.458l-162.286 130.32c-4.918 4.918-7.376 12.295-2.458 17.213s12.295 7.376 17.213 2.458l152.452-120.486 206.547 258.183c4.918 2.458 12.295 2.458 19.671-2.458z" />
<glyph unicode="&#xe91e;" glyph-name="top-destination" d="M884.708 791.053c0 5.071-2.536 10.143-7.607 10.143-2.536 2.536-7.607 2.536-10.143 0-7.607-5.071-202.834-121.7-339.746 88.739-2.536 2.536-5.071 5.071-7.607 5.071-5.071 2.536-12.677 0-15.212-5.071-20.283-32.961-136.913-195.227-342.282-91.275-5.071 0-10.143 0-12.677-2.536-5.071-2.536-7.607-5.071-7.607-10.143l-2.536-296.645c5.071-50.709 7.607-83.67 17.747-119.165 45.637-187.621 164.802-311.858 354.96-370.172 0 0 2.536 0 2.536 0s2.536 0 2.536 0c372.708 111.559 362.566 451.306 362.566 453.842l5.071 337.212zM816.252 281.433c-53.244-124.236-154.661-207.906-301.716-253.543-182.551 55.78-291.573 169.873-334.677 349.889-7.607 32.961-12.677 63.385-15.212 114.093l2.536 273.826c190.156-83.67 309.323 45.637 347.353 93.81 124.236-172.409 289.038-116.629 344.818-91.275l-5.071-314.392c0 2.536 2.536-78.599-38.031-172.409zM646.378 494.408l-53.244-53.244c-2.536-2.536-2.536-5.071-2.536-7.607l12.677-73.527c2.536-7.607-7.607-15.212-15.212-10.143l-65.92 35.497c-2.536 2.536-7.607 2.536-10.143 0l-65.92-38.031c-7.607-5.071-15.212 2.536-15.212 10.143l12.677 73.527c0 2.536 0 7.607-2.536 7.607l-53.244 53.244c-5.071 5.071-2.536 15.212 5.071 17.747l73.527 10.143c2.536 0 5.071 2.536 7.607 5.071l32.961 65.92c2.536 7.607 15.212 7.607 17.747 0l32.961-65.92c0-2.536 2.536-5.071 7.607-5.071l73.527-10.143c10.143 0 12.677-10.143 7.607-15.212z" />
<glyph unicode="&#xe91f;" glyph-name="review" d="M815.579 117.895c91.369 85.474 144.421 203.369 144.421 330.105 0 247.579-200.421 448-448 448s-448-200.421-448-448 200.421-448 448-448h377.264c11.79 0 20.631 5.895 23.579 17.685s0 20.631-8.841 26.526l-88.421 73.685zM512 29.474c-229.895 0-418.526 188.631-418.526 418.526s188.631 418.526 418.526 418.526 418.526-188.631 418.526-418.526c0-123.79-53.053-238.736-147.369-318.315-2.947-2.947-5.895-5.895-5.895-11.79 0-2.947 2.947-8.841 5.895-11.79l94.315-76.631h-365.474zM665.264 471.579l-64.841-61.895c-2.947-2.947-2.947-5.895-2.947-8.841l14.736-85.474c2.947-8.841-8.841-17.685-17.685-11.79l-76.631 41.264c-2.947 2.947-8.841 2.947-11.79 0l-76.631-44.21c-8.841-5.895-17.685 2.947-17.685 11.79l14.736 85.474c0 2.947 0 8.841-2.947 8.841l-61.895 61.895c-5.895 5.895-2.947 17.685 5.895 20.631l88.421 11.79c2.947 0 8.841 2.947 8.841 5.895l38.315 79.579c5.895 8.841 17.685 8.841 20.631 0l38.315-79.579c2.947-2.947 5.895-5.895 8.841-5.895l88.421-11.79c8.841 2.947 11.79-11.79 5.895-17.685z" />
<glyph unicode="&#xe920;" glyph-name="bike-boat" d="M798.883 279.622c1.847-1.491 3.694-2.902 5.514-4.366 69.426 32.027 113.971 96.624 118.67 172.746h-830.717v-84.068c0-30.536 11.408-59.064 24.391-78.183 27.977 20.258 58.099 40.217 116.85 40.217 62.092 0 94.686-21.939 125.27-46.346 25.315-20.231 47.18-37.722 94.741-37.722 41.992 0 63.912 15.702 87.081 32.326l11.843 8.461c29.199 21.261 59.376 43.281 121.088 43.281 62.092 0 94.686-21.939 125.27-46.346v0zM152.106 475.12h46.175v132.881h-46.175v-132.881zM225.443 475.12h125.162l-22.544 132.881h-102.618v-132.881zM600.276 475.12c39.548 0 73.581 29.885 80.29 67.797h-93.871c-4.835 0-9.316 2.576-11.734 6.726-2.444 4.176-2.472 9.302-0.109 13.505l41.394 73.031c-5.161 1.085-10.512 1.654-15.971 1.654-44.165 0-81.513-37.261-81.513-81.356s37.348-81.356 81.513-81.356v0zM609.973 570.035h70.594c-4.156 23.512-18.823 43.933-38.814 56.054l-31.779-56.054zM655.088 649.601c28.167-16.868 48.538-46.129 52.938-79.566h23.006l-62.499 103.322-13.445-23.756zM754.827 542.916h-46.8c-3.504-26.631-17.139-50.603-36.777-67.797h173.129c-22.924 20.068-37.673 49.356-37.673 81.356 0 32.244 14.993 61.776 38.217 81.844l-13.663 21.641-64.455-110.319c-1.657-2.902-4.292-4.936-7.198-5.966-0.761-0.244-1.521-0.434-2.282-0.569h-0.027c-0.842-0.163-1.657-0.136-2.472-0.19v0zM859.482 615.215c-15.645-14.943-25.614-35.933-25.614-58.739 0-44.095 37.321-81.356 81.486-81.356s81.486 37.261 81.486 81.356c0 43.2-36.098 78.943-82.192 81.356-11.544 0-22.626-2.603-32.703-7.295l42.155-66.821c4.020-6.346 2.091-14.726-4.238-18.712s-14.722-2.115-18.714 4.231l-41.666 65.979zM1007.948 276.801c4.319-6.129 2.825-14.59-3.314-18.874l-8.094-5.749c-24.446-17.519-52.178-37.397-102.943-37.397-47.751 0-74.913 15.566-98.217 33.166l-0.054 0.054c-4.563 3.444-9.045 6.943-13.418 10.441-28.683 22.888-54.867 40.407-108.294 40.407-52.857 0-77.058-17.627-105.062-38.048l-12.033-8.624c-24.446-17.519-52.178-37.397-102.916-37.397-57.094 0-84.854 22.21-111.716 43.661-28.656 22.888-54.839 40.407-108.294 40.407-52.83 0-77.031-17.627-105.062-38.048l-12.060-8.651c-24.446-17.491-52.151-37.369-102.889-37.369-7.497 0-13.581 6.074-13.581 13.559 0 7.512 6.084 13.559 13.581 13.559 38.488 0 60.082 13.207 81.268 28.176-18.036 26.115-29.661 61.071-29.661 93.858v97.627c0 7.485 6.057 13.559 13.581 13.559h46.175v132.881h-70.621c-7.497 0-13.581 6.074-13.581 13.559s6.084 13.559 13.581 13.559h285.199c6.628 0 12.277-4.773 13.391-11.309l25.233-148.691h151.128c-22.924 20.068-37.673 49.356-37.673 81.356 0 58.793 49.788 108.474 108.674 108.474 10.267 0 20.317-1.519 29.824-4.339l14.776 26.034h-44.599c-7.524 0-13.581 6.048-13.581 13.559 0 7.485 6.057 13.559 13.581 13.559h67.986c3.314-0.027 6.329-1.221 8.664-3.2 0 0 0.027 0 0.027-0.027 0.543-0.461 1.086-0.976 1.548-1.546l0.027-0.027c0.516-0.624 0.978-1.274 1.385-1.979l74.967-123.959 60.055 102.807-34.74 55.051h-60.408c-7.497 0-13.581 6.048-13.581 13.559 0 7.485 6.084 13.559 13.581 13.559h67.904c4.672 0 8.991-2.414 11.489-6.346l68.285-108.203c14.559 7.322 30.829 11.498 47.886 11.498 61.25-3.2 108.648-50.848 108.648-108.474 0-46.563-31.209-87.431-73.446-102.4-2.553-84.285-48.076-156.99-120.979-196.448 16.297-9.356 35.528-15.729 64.021-15.729 42.019 0 63.939 15.702 87.108 32.326l8.339 5.912c6.193 4.285 14.613 2.793 18.904-3.336v0zM1005.232 190.021c4.319-6.129 2.798-14.59-3.314-18.874l-8.121-5.776c-24.446-17.491-52.151-37.369-102.889-37.369-57.040 0-84.826 22.21-111.716 43.661-28.656 22.888-54.839 40.407-108.294 40.407-52.83 0-77.031-17.654-105.062-38.074l-12.033-8.597c-24.446-17.519-52.178-37.397-102.943-37.397-57.013 0-84.799 22.21-111.689 43.661-28.656 22.888-54.839 40.407-108.294 40.407-55.003 0-79.584-19.634-105.605-40.407l-8.801-6.291c-24.446-17.491-52.151-37.369-102.889-37.369-7.497 0-13.581 6.074-13.581 13.559 0 7.512 6.084 13.559 13.581 13.559 41.992 0 63.884 15.674 87.054 32.298l8.366 5.912c26.51 21.234 57.339 45.858 121.875 45.858 62.092 0 94.686-21.939 125.27-46.346 25.342-20.231 47.208-37.722 94.713-37.722 42.019 0 63.939 15.702 87.108 32.326l11.87 8.488c29.172 21.261 59.403 43.254 121.060 43.254 62.092 0 94.686-21.939 125.27-46.346 25.342-20.231 47.234-37.722 94.741-37.722 41.992 0 63.884 15.674 87.054 32.298l8.339 5.912c6.166 4.312 14.613 2.848 18.932-3.309v0z" />
<glyph unicode="&#xe921;" glyph-name="bike-family" d="M831.486 499.517c17.933 8.848 37.863 14.309 59.236 14.309 73.491 0 133.278-58.918 133.278-131.36s-59.785-131.386-133.278-131.386c-73.491 0-133.25 58.946-133.25 131.386 0 42.037 20.48 79.109 51.752 103.187l-23.106 36.18-90.585-146.301c-0.708-1.128-1.811-1.785-2.757-2.598-0.683-0.629-1.182-1.417-1.969-1.89-1.944-1.102-4.148-1.706-6.407-1.706h-63.987c-6.774-66.22-62.989-118.259-131.912-118.259s-125.138 52.041-131.938 118.259h-82.183v-43.428c0-7.273-5.854-13.127-13.127-13.127h-48.313c-6.565-35.001-38.518-61.703-77.063-61.703-36.548 0-67.9 27.15-74.411 61.703h-48.338c-7.248 0-13.127 5.854-13.127 13.127v192.775c0 7.273 5.883 13.127 13.127 13.127h117.55c77.378 0 140.498-60.627 143.439-136.217h82.444c3.859 37.625 23.551 70.498 52.801 91.975h-12.289c-5.828 0-11.003 3.859-12.603 9.506l-37.784 131.097c-1.994 6.958 2.023 14.232 9.005 16.227 6.958 2.023 14.232-2.023 16.227-8.979l35.052-121.593h81.526c15.020 0 29.224-3.021 42.719-7.562l25.575 42.983h-63.069c-7.248 0-13.127 5.883-13.127 13.127 0 7.273 5.883 13.127 13.127 13.127h86.252c0.079 0 0.159-0.054 0.235-0.054 2.049-0.025 3.912-0.629 5.644-1.55 0.499-0.264 0.918-0.604 1.392-0.946 1.287-0.867 2.338-1.918 3.202-3.202 0.235-0.315 0.629-0.448 0.813-0.788l93.472-160.978 85.7 138.37-46.21 72.309h-79.033c-7.248 0-13.127 5.883-13.127 13.127s5.883 13.127 13.127 13.127h86.226c4.491 0 8.639-2.283 11.053-6.066l89.009-139.342zM783.726 382.466c0-57.974 47.998-105.131 106.995-105.131 59.023 0 107.021 47.157 107.021 105.131 0 57.949-47.998 105.102-107.021 105.102-16.173 0-31.349-3.808-45.108-10.135l56.161-87.907c3.912-6.117 2.128-14.232-3.964-18.117-2.204-1.417-4.647-2.074-7.089-2.074-4.307 0-8.56 2.128-11.053 6.038l-56.266 88.091c-24.025-19.298-39.673-48.233-39.673-81.002zM620.411 395.596h41.17l-81.815 140.892-24.418-41.039c35.84-20.69 60.706-57.161 65.063-99.853zM541.982 472.974l-46.080-77.378h98.252c-4.253 33.137-24.025 61.256-52.172 77.378zM381.478 382.466c0-57.974 47.998-105.131 107.021-105.131 54.43 0 98.986 40.277 105.656 92.001h-121.33c-4.726 0-9.084 2.547-11.422 6.642-2.309 4.097-2.258 9.138 0.13 13.206l55.926 93.971c-9.268 2.573-18.879 4.412-28.961 4.412-59.023 0-107.021-47.157-107.021-105.102zM248.123 339.039v51.12c0 63.644-52.67 115.397-117.445 115.397h-104.423v-166.517h221.865zM88.274 312.784c5.987-20.191 25.365-35.446 47.602-35.446 23.894 0 44.085 15.020 50.254 35.446h-97.858z" />
<glyph unicode="&#xe922;" glyph-name="bike-hotel" d="M821.967 175.78c-96.145 0-174.357 76.857-174.357 171.346 0 56.627 28.229 106.759 71.403 137.988l94.042-148.131c2.601-4.146 7.113-6.412 11.679-6.412 2.519 0 5.093 0.691 7.389 2.156 6.476 4.062 8.386 12.602 4.262 19.042l-93.765 147.744c23.829 12.050 50.757 18.958 79.346 18.958 96.145 0 174.357-76.857 174.357-171.346s-78.212-171.346-174.357-171.346v0zM403.207 360.943c-5.895 70.003-48.709 129.753-109.208 160.374l46.495 80.284 141.783-240.658h-79.070zM280.105 497.356c52.252-25.84 89.558-76.636 95.426-136.413h-174.44l79.014 136.413zM202.032 173.016c-96.145 0-174.357 76.884-174.357 171.373 0 94.461 78.212 171.318 174.357 171.318 18.183 0 35.702-2.764 52.197-7.849l-89.088-153.824c-2.491-4.256-2.491-9.534 0-13.818 2.463-4.256 7.029-6.909 11.984-6.909h198.684c-5.84-89.321-81.422-160.291-173.776-160.291v0zM821.967 546.107c-34.014 0-66.090-8.402-94.236-23.104l-140.427 221.202c-0.249 0.414-0.664 0.636-0.941 0.995-0.609 0.774-1.273 1.492-2.021 2.128-0.664 0.553-1.384 0.995-2.131 1.41-0.748 0.442-1.522 0.774-2.352 1.050-0.941 0.304-1.854 0.47-2.879 0.58-0.443 0.028-0.858 0.249-1.328 0.249h-132.843c-7.666 0-13.838-6.163-13.838-13.818 0-7.628 6.171-13.818 13.838-13.818h125.233l76.357-120.301-137.797-228.525-154.264 261.882c-0.221 0.332-0.609 0.498-0.83 0.802-0.941 1.326-2.048 2.432-3.404 3.372-0.498 0.332-0.913 0.718-1.467 0.967-1.91 0.995-3.957 1.658-6.227 1.658h-135.611c-7.666 0-13.838-6.163-13.838-13.818 0-7.628 6.171-13.818 13.838-13.818h111.616l-48.128-83.047c-20.784 7.13-43.036 11.193-66.255 11.193-111.395 0-202.032-89.266-202.032-198.954 0-109.716 90.638-199.010 202.032-199.010 107.603 0 195.584 83.379 201.451 187.927h102.981c0.11 0 0.194 0.083 0.305 0.083 2.269 0.055 4.511 0.636 6.504 1.769 0.996 0.553 1.605 1.548 2.463 2.377s1.91 1.382 2.574 2.46l142.668 236.567 43.202-68.068c-50.923-36.176-84.245-94.931-84.245-161.369 0-109.716 90.638-198.982 202.032-198.982s202.032 89.266 202.032 198.982c0 109.716-90.638 198.982-202.032 198.982v0z" />
<glyph unicode="&#xe923;" glyph-name="boat" d="M947.983 469.664l-111.026 27.080-64.991 292.461c-2.708 5.416-8.123 10.832-13.539 10.832h-81.239v73.116c0 8.123-5.416 13.539-13.539 13.539h-297.877c-8.123 0-13.539-5.416-13.539-13.539v-73.116h-70.407c-5.416 0-10.832-5.416-13.539-10.832l-78.532-295.168-113.735-27.080c-5.416-2.708-10.832-8.123-10.832-13.539 0-243.717 200.39-444.107 446.814-444.107s446.814 200.39 446.814 446.814c0 5.416-5.416 10.832-10.832 13.539zM929.027 399.257l-398.071 83.948v59.575l403.488-97.487c-2.708-16.248-5.416-29.787-5.416-46.036zM379.31 859.611h270.797v-59.575h-270.797v59.575zM292.655 772.956h454.939l59.575-270.797-289.752 70.407c-2.708 0-5.416 0-5.416 0l-292.461-70.407 73.116 270.797zM501.168 542.778v-59.575l-406.195-83.948c-2.708 13.539-2.708 29.787-2.708 43.328l408.904 100.194zM100.389 372.177l400.778 83.948 2.708-419.736c-200.39 5.416-365.575 146.23-403.488 335.788zM530.955 36.389l-2.708 417.027 395.363-83.948c-37.912-181.433-197.681-322.249-392.655-333.081zM620.319 583.398h24.371c27.080 0 46.036 18.955 46.036 48.743v56.868c0 8.123-5.416 13.539-13.539 13.539h-92.071c-8.123 0-13.539-5.416-13.539-13.539v-56.868c0-27.080 21.664-48.743 48.743-48.743zM598.655 675.469h64.991v-43.328c0-13.539-8.123-21.664-18.955-21.664h-24.371c-10.832 0-21.664 10.832-21.664 21.664v43.328zM433.468 702.549h-92.071c-8.123 0-13.539-5.416-13.539-13.539v-56.868c0-27.080 21.664-48.743 48.743-48.743h24.371c27.080 0 46.036 18.955 46.036 48.743v56.868c0 8.123-5.416 13.539-13.539 13.539zM419.929 632.142c0-13.539-5.416-21.664-18.955-21.664h-24.371c-10.832 0-21.664 10.832-21.664 21.664v43.328h64.991v-43.328z" />
<glyph unicode="&#xe924;" glyph-name="roadbike" d="M649.111 347.447c0 56.465 28.231 106.476 71.43 137.489l93.002-147.742c2.63-4.219 7.19-6.538 11.835-6.538 2.546 0 5.12 0.67 7.414 2.151 6.575 4.107 8.534 12.712 4.393 19.25l-92.722 147.351c23.502 11.679 49.97 18.44 78.089 18.44 95.66 0 173.469-76.441 173.469-170.401 0-94.015-77.809-170.457-173.469-170.457-95.632 0-173.442 76.441-173.442 170.457zM552.248 452.247l-10.101 17.937 32.26 54.537c3.917 6.65 1.707 15.199-4.952 19.139-6.547 3.884-15.192 1.732-19.137-4.917l-36.373-61.494c-2.546-4.274-2.602-9.611-0.14-13.942l21.992-39.031-29.35-49.536-140.174 237.902h273.774l3.805-6.063-91.603-154.532zM27.979 344.625c0 93.987 77.809 170.429 173.442 170.429 18.494 0 36.317-2.906 53.048-8.214l-90.26-152.296c-2.574-4.331-2.602-9.667-0.112-14.026s7.135-7.040 12.143-7.040h198.091c-5.904-88.763-81.083-159.282-172.91-159.282-95.632 0-173.442 76.47-173.442 170.429zM200.777 361.416l79.824 134.667c51.118-25.872 87.574-75.883 93.45-134.667h-173.273zM341.763 599.318l140.174-237.902h-79.908c-5.932 69.010-47.788 128.017-107.131 158.779l46.865 79.124zM729.495 523.184l-125.010 198.62h131.333c14.605 0 25.209-10.561 25.209-25.145 0-14.612-13.346-27.939-27.979-27.939h-25.209c-7.722 0-13.99-6.258-13.99-13.97s6.267-13.97 13.99-13.97h25.209c30.329 0 55.958 25.593 55.958 55.878 0 30.258-22.887 53.084-53.188 53.084h-156.654c-5.092 0-9.793-2.766-12.255-7.208s-2.322-9.89 0.42-14.193l55.119-87.561h-272.627l-27.223 46.184c-2.49 4.274-7.106 6.901-12.059 6.901h-109.118c-7.722 0-13.99-6.258-13.99-13.97s6.267-13.97 13.99-13.97h101.116l23.026-39.087-56.601-95.552c-21.152 7.432-43.815 11.707-67.541 11.707-111.049 0-201.42-88.986-201.42-198.368s90.372-198.368 201.42-198.368c107.271 0 194.957 83.035 200.889 187.22h104.081c0.168 0 0.308 0.084 0.448 0.084 2.35 0.084 4.588 0.67 6.575 1.816 2.014 1.174 3.441 2.766 4.588 4.526 0.112 0.167 0.308 0.252 0.42 0.419l142.189 239.858 44.99-71.552c-51.034-36.014-84.469-94.77-84.469-161.181 0-109.382 90.344-198.396 201.42-198.396s201.448 89.014 201.448 198.396c0 109.354-90.372 198.34-201.448 198.34-33.575 0-65.191-8.242-93.058-22.603z" />
<glyph unicode="&#xe925;" glyph-name="family" d="M665.883 641.596c69.496 0 126.581 57.085 126.581 126.581s-57.085 129.063-126.581 129.063-129.063-57.085-129.063-129.063 57.085-126.581 129.063-126.581zM665.883 872.421c57.085 0 101.761-47.159 101.761-101.761 0-57.085-47.159-101.761-101.761-101.761s-104.244 44.676-104.244 99.281c0 57.085 47.159 104.244 104.244 104.244zM737.861 639.114h-148.92c-49.639 0-91.833-39.711-91.833-91.833v-24.82c-19.857 22.337-44.676 37.23-74.459 37.23h-29.785c52.122 14.891 91.833 64.533 91.833 121.618 0 69.496-57.085 126.581-126.581 126.581s-126.581-57.085-126.581-126.581c0-57.085 37.23-104.244 91.833-121.618h-37.23c-49.639 0-91.833-42.194-91.833-91.833v-218.416c0-49.639 42.194-91.833 91.833-91.833h89.352v-57.085c0-54.604 44.676-99.281 99.281-99.281h74.459c54.604 0 99.281 44.676 99.281 99.281v57.085h89.352c49.639 0 91.833 39.711 91.833 91.833v300.321c0 49.639-39.711 89.352-91.833 89.352zM256.354 681.307c0 57.085 47.159 101.761 101.761 101.761 57.085 0 101.761-47.159 101.761-101.761 0-57.085-47.159-101.761-101.761-101.761s-101.761 47.159-101.761 101.761zM512 313.971c-47.159 0-84.387 37.23-84.387 84.387 0 44.676 34.748 81.907 79.424 84.387h4.963c0 0 0 0 2.483 0 47.159 0 84.387-39.711 84.387-84.387-2.483-47.159-39.711-84.387-86.87-84.387zM286.139 182.427c-37.23 0-67.013 29.785-67.013 67.013v218.416c0 37.23 29.785 67.013 67.013 67.013h141.474c24.82 0 44.676-14.891 57.085-29.785-47.159-12.411-81.907-54.604-81.907-106.726 0-44.676 27.302-84.387 67.013-101.761-52.122-4.963-91.833-47.159-91.833-99.281v-14.891h-91.833zM623.689 100.521c0-42.194-34.748-74.459-74.459-74.459h-74.459c-42.194 0-74.459 34.748-74.459 74.459v99.281c0 42.194 34.748 74.459 74.459 74.459h74.459c42.194 0 74.459-34.748 74.459-74.459v-99.281zM804.875 249.441c0-37.23-29.785-67.013-67.013-67.013h-89.352v17.374c0 52.122-42.194 96.798-91.833 99.281 39.711 17.374 67.013 57.085 67.013 101.761 0 57.085-42.194 101.761-96.798 109.207v39.711c0 37.23 29.785 67.013 67.013 67.013h148.92c37.23 0 67.013-29.785 67.013-67.013v-300.321z" />
<glyph unicode="&#xe926;" glyph-name="indipendent" d="M624.693 690.087c-58.435 0-105.739-47.304-105.739-105.739s47.304-105.739 105.739-105.739 105.739 47.304 105.739 105.739-47.304 105.739-105.739 105.739zM624.693 506.435c-44.522 0-77.913 36.174-77.913 77.913s36.174 77.913 77.913 77.913c44.522 0 77.913-36.174 77.913-77.913s-33.391-77.913-77.913-77.913zM838.954 806.956l-200.347 86.261c-2.782 2.782-8.348 2.782-11.13 2.782s-2.782 0-5.565 0c0 0-2.782 0-2.782 0-5.565 0-11.13 0-16.695-2.782l-205.913-89.044c-2.782 0-5.565-2.782-8.348-2.782 0 0 0 0 0 0s0 0 0 0c-2.782 0-5.565 0-5.565 0l-180.87 77.913c-8.348 2.782-16.695 2.782-25.043-2.782-5.565-2.782-11.13-11.13-11.13-16.695v-431.305c0-11.13 8.348-22.261 19.479-27.825l97.391-38.956c-8.348-13.913-16.695-27.825-16.695-44.522v-239.305c0-41.74 33.391-77.913 77.913-77.913h119.651c36.174 0 66.783 25.043 75.131 58.435h144.697c47.304 0 83.478 36.174 83.478 83.478v203.132l75.131-22.261c0 0 2.782 0 2.782 0 2.782 0 5.565 0 8.348 2.782s5.565 5.565 5.565 11.13v445.219c0 8.348-5.565 19.479-19.479 25.043zM513.389 75.131c0-27.825-22.261-50.086-50.086-50.086h-119.651c-27.825 0-50.086 22.261-50.086 50.086v239.305c0 27.825 22.261 50.086 50.086 50.086h119.651c27.825 0 50.086-22.261 50.086-50.086 0 0 0-2.782 0-2.782v-236.523zM683.129 86.261h-141.912v228.174c0 0 0 2.782 0 2.782 0 22.261-11.13 41.74-27.825 55.652 2.782 27.825 25.043 55.652 55.652 55.652h116.869c30.609 0 55.652-25.043 55.652-55.652v-8.348c0 0 0 0 0 0 0-2.782 0-5.565 0-8.348v-214.263c-2.782-30.609-27.825-55.652-58.435-55.652zM830.606 350.609l-64.001 19.479v2.782c0 44.522-36.174 83.478-83.478 83.478h-116.869c-38.956 0-72.347-30.609-80.696-69.565-8.348 2.782-13.913 2.782-22.261 2.782h-119.651c-13.913 0-27.825-2.782-38.956-11.13l-108.521 44.522c-2.782 0-2.782 2.782-2.782 2.782v425.739l180.87-72.347c0 0 2.782 0 2.782 0v-97.391c0-8.348 5.565-13.913 13.913-13.913s13.913 5.565 13.913 13.913v94.608c2.782 0 2.782 0 5.565 2.782l197.565 86.261v-122.435c0-8.348 5.565-13.913 13.913-13.913s13.913 5.565 13.913 13.913v122.435l192.002-83.478c2.782 0 2.782-2.782 2.782-2.782v-428.521zM404.866 623.304c-58.435 0-105.739-47.304-105.739-105.739s47.304-105.739 105.739-105.739 105.739 47.304 105.739 105.739-47.304 105.739-105.739 105.739zM404.866 439.652c-44.522 0-77.913 36.174-77.913 77.913s36.174 77.913 77.913 77.913 77.913-36.174 77.913-77.913c0-44.522-36.174-77.913-77.913-77.913z" />
<glyph unicode="&#xe927;" glyph-name="group" d="M719.868 410.333h-33.482c44.643 11.161 78.125 53.014 78.125 103.237 0 55.804-41.853 100.447-94.866 106.027-5.58 39.063-39.063 69.755-78.125 69.755h-30.692c41.853 13.951 75.335 53.014 75.335 100.447 0 58.594-47.433 106.027-106.027 106.027s-106.027-47.433-106.027-106.027c0-47.433 30.692-86.496 75.335-100.447h-30.692c-27.902 0-50.223-13.951-66.965-36.272-13.951 22.322-39.063 36.272-66.965 36.272h-30.692c41.853 13.951 75.335 53.014 75.335 100.447 0 58.594-47.433 106.027-106.027 106.027s-106.027-47.433-106.027-106.027c0-47.433 30.692-86.496 75.335-100.447h-33.482c-39.063 0-72.545-30.692-78.125-66.965-53.014-5.58-94.866-50.223-94.866-106.027 0-50.223 33.482-89.286 78.125-103.237h-33.482c-44.643 0-80.916-36.272-80.916-80.916v-251.117c0-44.643 36.272-80.916 80.916-80.916h122.768c27.902 0 53.014 13.951 66.965 36.272 13.951-22.322 39.063-36.272 66.965-36.272h125.559c27.902 0 53.014 13.951 66.965 36.272 13.951-22.322 39.063-36.272 66.965-36.272h125.559c44.643 0 80.916 36.272 80.916 80.916v251.117c-5.58 41.853-41.853 78.125-83.706 78.125zM449.22 789.798c0 44.643 36.272 78.125 78.125 78.125 44.643 0 78.125-36.272 78.125-78.125s-36.272-78.125-78.125-78.125c-44.643-2.79-78.125 33.482-78.125 78.125zM192.522 789.798c0 44.643 36.272 78.125 78.125 78.125s78.125-36.272 78.125-78.125-36.272-78.125-78.125-78.125-78.125 33.482-78.125 78.125zM733.819 513.57c0-41.853-33.482-78.125-78.125-78.125 0 0 0 0 0 0s-2.79 0-2.79 0c-41.853 0-75.335 36.272-75.335 78.125 0 44.643 36.272 78.125 78.125 78.125 44.643 0 78.125-36.272 78.125-78.125zM465.961 658.66h125.559c25.112 0 44.643-16.741 50.223-41.853-50.223-8.371-89.286-50.223-89.286-106.027 0-50.223 33.482-89.286 78.125-103.237h-36.272c-27.902 0-53.014-13.951-66.965-36.272-13.951 22.322-39.063 36.272-66.965 36.272h-33.482c44.643 11.161 78.125 53.014 78.125 103.237 0 53.014-39.063 97.657-92.076 106.027 8.371 25.112 27.902 41.853 53.014 41.853zM396.206 594.485c2.79 0 2.79-2.79 0 0 2.79 0 2.79 0 2.79 0 41.853 0 78.125-36.272 78.125-78.125 0-44.643-36.272-78.125-78.125-78.125s-78.125 36.272-78.125 78.125c-2.79 41.853 33.482 75.335 75.335 78.125zM209.263 658.66h125.559c25.112 0 44.643-16.741 50.223-39.063-53.014-8.371-92.076-53.014-92.076-106.027 0-50.223 33.482-92.076 78.125-103.237h-33.482c-27.902 0-53.014-13.951-66.965-36.272-13.951 19.531-39.063 33.482-66.965 33.482h-30.692c44.643 13.951 78.125 53.014 78.125 103.237 0 53.014-39.063 97.657-92.076 106.027 5.58 25.112 25.112 41.853 50.223 41.853zM61.383 513.57c0 44.643 36.272 78.125 78.125 78.125s78.125-36.272 78.125-78.125-36.272-78.125-78.125-78.125-78.125 33.482-78.125 78.125zM256.697 78.3c0-27.902-22.322-53.014-53.014-53.014h-122.768c-27.902 0-53.014 22.322-53.014 53.014v251.117c0 27.902 22.322 53.014 53.014 53.014h122.768c27.902 0 53.014-22.322 53.014-53.014v-251.117zM460.381 25.286h-125.559c-27.902 0-53.014 22.322-53.014 53.014v251.117c0 0 0 0 0 2.79 0 27.902 22.322 50.223 53.014 50.223h125.559c27.902 0 53.014-22.322 53.014-53.014 0 0 0-2.79 0-2.79v-251.117c0-25.112-22.322-50.223-53.014-50.223zM770.092 78.3c0-27.902-22.322-53.014-53.014-53.014h-122.768c-27.902 0-53.014 22.322-53.014 53.014v251.117c0 27.902 22.322 53.014 53.014 53.014h125.559c27.902 0 53.014-22.322 53.014-53.014v-251.117zM1015.629 600.065l-159.041 114.398c-5.58 2.79-11.161 2.79-13.951 0-5.58-2.79-8.371-8.371-8.371-11.161v-200.894c0 0 0 0 0 0v-488.283c0-8.371 5.58-13.951 13.951-13.951s13.951 5.58 13.951 13.951v477.123l153.46 83.706c5.58 2.79 5.58 5.58 8.371 11.161-2.79 5.58-5.58 11.161-8.371 13.951zM862.168 524.73v150.67l119.978-86.496-119.978-64.174z" />
<glyph unicode="&#xe928;" glyph-name="mate" d="M396.532 462.375h-143.171c-49.288 0-86.842-39.901-86.842-86.842v-288.691c0-49.288 39.901-86.842 86.842-86.842h143.171c49.288 0 86.842 39.901 86.842 86.842v288.691c0 46.942-39.901 86.842-86.842 86.842zM459.903 86.842c0-35.206-28.165-63.371-63.371-63.371h-143.171c-35.206 0-63.371 28.165-63.371 63.371v288.691c0 35.206 28.165 63.371 63.371 63.371h143.171c35.206 0 63.371-28.165 63.371-63.371v-288.691zM323.772 464.723c68.065 0 122.048 53.983 122.048 122.048s-53.983 122.048-122.048 122.048-122.048-53.983-122.048-122.048 53.983-122.048 122.048-122.048zM323.772 685.349c53.983 0 98.578-44.595 98.578-98.578s-44.595-98.578-98.578-98.578-98.578 44.595-98.578 98.578c0 53.983 44.595 98.578 98.578 98.578zM851.867 729.943l-251.139 164.297c-4.695 2.346-7.041 2.346-11.736 0s-7.041-7.041-7.041-9.388v-286.345c0 0 0 0 0 0v-579.731c0-7.041 4.695-11.736 11.736-11.736s11.736 4.695 11.736 11.736v572.69l244.097 119.702c4.695 2.346 7.041 4.695 7.041 9.388 2.346 4.695 0 7.041-4.695 9.388zM607.769 617.283v246.444l215.931-140.825-215.931-105.619z" />
<glyph unicode="&#xe929;" glyph-name="earth" d="M469.213 103.191c-18.625 0-38.004 13.265-48.475 31.688l-3.197 9.187c-10.193 20.362-25.823 35.89-43.391 43.365l-70.471 35.236c-20.991 10.521-45.38 14.346-72.485 11.326l-77.796-8.935c-24.665 39.489-43.039 83.181-53.585 129.97l61.185 58.894c24.036 24.060 41.529 54.565 53.71 94.282l10.117 45.555c4.179 20.94 19.153 40.799 39.313 51.999l30.329 17.693c29.044 17.441 46.386 48.752 46.361 84.491l-5.008 87.385c0 11.553-5.336 22.023-14.346 29.623 57.309 29.095 121.942 45.883 190.526 45.883 65.387 0 127.152-15.379 182.497-42.007l-16.26-107.118c-4.329-28.138-23.281-48.727-50.992-55.119-23.835-5.965-44.146-20.965-55.521-40.873l-27.736-45.404c-11.577-19.279-35.26-27.887-55.699-19.681-27.887 9.236-61.965-2.995-77.519-27.837l-35.413-55.672c-19.077-31.787-13.943-70.422 12.257-93.678l121.236-113.636c10.746-9.212 23.407-41.403 28.491-57.939 2.995-17.945 13.516-33.977 28.868-44.070 10.847-7.097 23.508-10.823 36.242-10.823 5.285 0 10.596 0.654 15.781 1.964l19.355 4.857c31.989 5.814 57.46 34.909 60.655 70.271v186.248c0 11.905 5.94 23.054 15.831 29.85 9.614 6.594 21.469 7.953 32.342 3.775l14.22-5.563c8.632-2.164 16.385-6.343 23.18-12.961l3.397-2.568c19.758-14.9 42.106-31.787 70.723-15.932l76.286 42.861c0.101-3.927 0.604-7.803 0.604-11.78 0-218.337-166.34-398.493-378.937-420.54-6.77 42.207-43.542 75.733-86.681 75.733zM234.013 208.974c22.198 2.467 41.83-0.503 58.415-8.834l71.152-35.539c17.19-7.349 27.082-23.079 30.78-30.151l3.449-9.69c16.008-28.819 43.365-46.739 71.404-46.739 29.976 0 55.825-22.753 61.637-51.897-6.293-0.276-12.483-0.957-18.851-0.957-141.145 0-266.007 69.768-342.846 176.331l64.859 7.475zM303.907 807.079c2.516-1.712 6.745-5.511 6.77-12.483l5.008-87.36c0-26.1-12.761-49.356-34.027-62.116l-29.976-17.493c-26.604-14.774-45.857-40.547-51.47-68.685l-9.816-44.321c-10.847-35.186-25.823-61.511-47.040-82.729l-48.927-47.116c-3.121 20.688-5.26 41.679-5.26 63.223 0 153.503 82.503 287.777 205.199 361.849 2.265 0.227 5.763-0.227 9.54-2.768zM845.659 438.865c-12.937-7.199-22.627-1.535-43.265 14.069l-2.139 1.435c-8.607 8.632-20.513 15.177-31.913 17.895l-12.71 5.109c-18.902 7.273-39.263 4.907-55.798-6.444-16.737-11.501-26.754-30.429-26.754-50.614l0.050-185.089c-2.114-23.205-18.977-42.812-40.848-46.813l-20.16-5.060c-11.074-2.844-22.45-0.831-32.115 5.511-9.513 6.217-16.008 16.134-18.221 28.693-1.636 5.487-16.737 54.364-36.141 71.001l-121.061 113.485c-17.241 15.327-20.387 40.873-7.803 61.839l35.287 55.472c9.54 15.278 31.209 23.029 47.568 17.644 31.612-12.685 67.78 0.126 85.9 30.277l27.837 45.631c8.18 14.296 22.777 24.968 39.74 29.221 37.35 8.607 64.155 37.653 70.020 75.807l14.975 98.913c118.167-66.319 201.398-187.531 214.712-328.979l-87.158-49.004zM958.414 479.084c0.252 1.611 0.151 3.222-0.252 4.857-12.66 158.058-107.495 293.038-241.844 362.276-1.712 1.409-3.649 2.568-6.015 2.919-59.9 29.724-127.076 46.865-198.303 46.865-82.88 0-160.298-23.029-226.97-62.419-1.712-1.132-4.278-2.29-6.192-3.775-128.586-78.802-214.838-220.25-214.838-381.807 0-31.888 3.473-62.947 9.841-92.948 0.101-0.276 0.101-0.553 0.202-0.805 11.351-53.030 32.291-102.46 60.631-146.757 0.604-1.786 1.535-3.348 2.82-4.655 80.137-121.991 217.959-202.833 374.507-202.833 10.42 0 20.663 0.856 30.906 1.586 0.629-0.101 1.157-0.377 1.813-0.377 1.057 0 2.013 0.377 2.995 0.604 230.318 18.322 412.286 211.239 412.286 446.187 0 10.495-0.881 20.764-1.586 31.084z" />
<glyph unicode="&#xe92a;" glyph-name="earth-airplane" d="M127.797 262.792c2.793-5.973 0.393-13.177-5.334-16.092-1.64-0.819-3.349-1.204-5.033-1.204-4.295 0-8.406 2.505-10.392 6.793-4.826 10.358-9.283 20.957-13.371 31.748-2.332 6.191 0.6 13.177 6.535 15.586 5.935 2.505 12.632-0.579 14.964-6.793 3.857-10.189 8.083-20.21 12.632-30.038zM420.701 30.867c6.28-1.181 10.437-7.443 9.306-13.995-0.993-5.805-5.865-9.901-11.338-9.901-0.693 0-1.363 0.073-2.055 0.192-10.969 2.048-21.799 4.529-32.445 7.468-6.189 1.711-9.861 8.286-8.221 14.719 1.617 6.432 7.989 10.285 14.087 8.575 10.069-2.746 20.298-5.106 30.667-7.058zM279.168 87.716c5.426-3.517 7.066-10.937 3.695-16.597-2.171-3.637-5.935-5.662-9.792-5.662-2.102 0-4.203 0.579-6.097 1.807-9.422 6.119-18.589 12.575-27.503 19.392-5.127 3.951-6.236 11.49-2.471 16.863 3.787 5.371 10.969 6.503 16.142 2.578 8.429-6.432 17.112-12.575 26.025-18.379zM196.174 158.947c7.159-7.998 14.595-15.705 22.308-23.101 4.687-4.481 5.011-12.092 0.693-17.006-2.287-2.578-5.381-3.902-8.498-3.902-2.793 0-5.589 1.059-7.829 3.18-8.128 7.805-15.981 15.947-23.531 24.378-4.364 4.865-4.11 12.478 0.553 17.031 4.665 4.504 11.985 4.263 16.303-0.579zM149.619 221.914c5.611-9.275 11.546-18.26 17.804-27.003 3.811-5.324 2.749-12.887-2.356-16.863-2.079-1.614-4.502-2.385-6.905-2.385-3.509 0-6.997 1.662-9.261 4.841-6.604 9.249-12.886 18.766-18.797 28.568-3.418 5.612-1.801 13.055 3.603 16.597 5.381 3.541 12.494 1.879 15.911-3.759zM347.337 52.33c5.957-2.409 8.913-9.371 6.628-15.586-1.778-4.769-6.142-7.708-10.785-7.708-1.385 0-2.771 0.265-4.156 0.794-10.345 4.167-20.505 8.72-30.458 13.683-5.749 2.891-8.197 10.045-5.45 16.066s9.653 8.575 15.403 5.685c9.422-4.697 19.028-9.009 28.819-12.936zM773.137 140.469c4.618 4.6 11.916 4.408 16.327-0.385 4.388-4.794 4.226-12.429-0.37-17.031-7.989-7.973-16.327-15.609-24.941-22.932-2.148-1.807-4.711-2.697-7.273-2.697-3.349 0-6.673 1.493-8.96 4.431-4.040 5.155-3.302 12.767 1.662 16.933 8.128 6.913 16.003 14.116 23.555 21.679zM496.513 24.122c6.189-0.626 11.639-5.155 11.778-11.78 0.138-6.672-4.919-12.165-11.316-12.31l-3.465-0.024c-10.022 0-19.999 0.337-29.858 1.059-6.35 0.434-11.153 6.215-10.738 12.839 0.439 6.601 5.774 11.755 12.309 11.201 9.352-0.675 18.774-1.012 28.287-1.012l3.003 0.024zM823.087 200.523c3.695 5.42 10.923 6.625 16.095 2.819 5.196-3.855 6.396-11.37 2.702-16.79-6.419-9.418-13.209-18.572-20.345-27.413-2.262-2.843-5.542-4.288-8.821-4.288-2.633 0-5.265 0.916-7.436 2.819-4.895 4.263-5.52 11.851-1.408 16.959 6.72 8.359 13.139 17.006 19.214 25.895zM713.258 91.258c5.334 3.59 12.516 1.999 15.956-3.59 3.487-5.589 1.916-13.055-3.418-16.645-9.283-6.238-18.821-12.117-28.611-17.608-1.731-0.987-3.625-1.469-5.495-1.469-4.087 0-8.059 2.289-10.138 6.335-3.048 5.83-0.946 13.153 4.665 16.308 9.261 5.202 18.29 10.768 27.041 16.669zM572.511 32.047c6.166 1.397 12.331-2.939 13.531-9.514 1.247-6.503-2.84-12.839-9.098-14.116-10.76-2.191-21.707-3.998-32.767-5.348-0.484-0.049-0.924-0.073-1.385-0.073-5.774 0-10.76 4.504-11.431 10.623-0.763 6.625 3.787 12.622 10.115 13.393 10.484 1.277 20.829 2.962 31.036 5.034zM645.575 54.69c5.888 2.505 12.632-0.483 15.057-6.648 2.378-6.191-0.484-13.2-6.396-15.682-10.229-4.312-20.668-8.214-31.268-11.708-1.178-0.361-2.332-0.553-3.487-0.553-4.895 0-9.468 3.3-10.992 8.407-1.916 6.36 1.455 13.128 7.528 15.103 10.069 3.3 19.905 7.009 29.559 11.081zM101.079 337.347c1.662-6.432-1.986-13.032-8.128-14.791-1.015-0.265-2.032-0.41-3.025-0.41-5.080 0-9.745 3.517-11.131 8.889-2.887 11.081-5.357 22.354-7.389 33.773-1.2 6.552 2.933 12.839 9.214 14.044 6.374 1.228 12.309-3.107 13.462-9.611 1.939-10.768 4.272-21.44 6.997-31.894zM286.396 813.795c-3.996 0-7.898 2.168-10.022 6.046-3.186 5.758-1.27 13.128 4.272 16.453 9.583 5.733 19.374 11.105 29.421 16.092 5.774 2.891 12.632 0.314 15.379-5.709 2.749-5.999 0.301-13.177-5.473-16.043-9.468-4.722-18.774-9.805-27.826-15.248-1.825-1.059-3.787-1.589-5.749-1.589zM167.701 708.022c-2.541 0-5.103 0.867-7.228 2.65-4.989 4.192-5.749 11.78-1.778 16.933 6.951 8.985 14.225 17.704 21.799 26.112 4.342 4.865 11.708 5.083 16.327 0.53 4.641-4.553 4.873-12.165 0.509-17.006-7.182-7.973-14.063-16.212-20.621-24.739-2.287-2.939-5.635-4.481-9.007-4.481zM511.916 871.921c-6.374 0.096-11.454 5.589-11.361 12.214 0.092 6.648 5.173 11.49 11.731 11.876 13.44-0.241 23.832-0.987 33.669-2.433 6.305-0.963 10.716-7.058 9.814-13.634-0.832-5.999-5.774-10.358-11.407-10.358-0.553 0-1.109 0.049-1.662 0.12-8.844 1.324-18.335 1.999-30.782 2.217zM357.727 847.736c-4.781 0-9.237 3.107-10.899 8.070-2.102 6.287 1.062 13.153 7.090 15.345 10.414 3.806 21.014 7.178 31.774 10.117 6.097 1.711 12.469-2.144 14.087-8.575 1.64-6.432-2.055-13.032-8.221-14.719-10.16-2.77-20.182-5.973-30.021-9.563-1.27-0.457-2.541-0.675-3.811-0.675zM118.998 641.273c-5.635 3.131-7.759 10.454-4.734 16.308 5.218 10.189 10.807 20.162 16.765 29.869 3.418 5.612 10.553 7.25 15.934 3.686 5.381-3.59 6.951-11.033 3.509-16.645-5.611-9.202-10.899-18.621-15.865-28.28-2.055-4.047-6.051-6.36-10.185-6.36-1.847 0-3.695 0.457-5.426 1.421zM433.817 867.248c-5.635 0-10.577 4.288-11.407 10.285-0.946 6.576 3.418 12.694 9.723 13.683 10.876 1.687 21.869 2.939 32.999 3.759 6.305 0.457 11.893-4.529 12.331-11.178 0.462-6.625-4.342-12.382-10.691-12.839-10.53-0.794-20.967-1.975-31.243-3.564-0.578-0.096-1.155-0.145-1.709-0.145zM222.315 766.654c-3.255 0-6.489 1.446-8.775 4.216-4.156 5.059-3.579 12.671 1.27 16.983 8.406 7.492 17.088 14.67 26.047 21.487 5.173 3.951 12.378 2.723 16.142-2.625 3.764-5.371 2.61-12.912-2.517-16.837-8.476-6.456-16.695-13.224-24.662-20.331-2.171-1.926-4.85-2.891-7.505-2.891zM90.758 565.007c-6.097 1.975-9.513 8.72-7.621 15.080 3.302 11.056 7.021 21.945 11.108 32.641 2.356 6.191 9.051 9.177 15.010 6.721 5.912-2.457 8.799-9.467 6.443-15.658-3.88-10.093-7.389-20.378-10.507-30.858-1.524-5.155-6.097-8.479-11.015-8.479-1.131 0-2.287 0.192-3.418 0.553zM77.641 402.772c-0.323-0.024-0.6-0.024-0.901-0.024-5.981 0-11.039 4.794-11.501 11.105-0.832 11.274-1.247 22.691-1.247 34.181 0 6.672 5.173 12.261 11.546 12.261 6.396 0 11.546-5.202 11.546-11.851v-0.41c0-10.887 0.393-21.679 1.178-32.327 0.484-6.648-4.272-12.429-10.622-12.936zM76.856 484.528c-6.327 0.722-10.899 6.672-10.207 13.296 1.225 11.562 2.909 22.981 4.964 34.253 1.225 6.529 7.32 10.744 13.531 9.563 6.258-1.253 10.368-7.564 9.167-14.091-1.963-10.672-3.556-21.463-4.711-32.4-0.647-6.142-5.658-10.695-11.454-10.695-0.415 0-0.877 0.024-1.294 0.073zM193.31 448.034c0-15.127 1.385-29.918 3.371-44.492l32.352 33.747c15.010 15.682 27.756 38.108 34.039 59.981l6.697 32.784c5.565 23.197 19.328 42.637 37.894 53.718l23.647 12.357c14.571 7.588 23.162 25.028 21.407 43.432l-4.641 65.352c-0.047 5.493-3.117 8.841-5.727 10.311-1.131 0.626-2.956 1.253-5.011 1.108-86.25-55.669-144.027-154.938-144.027-268.299zM495.821 763.619c-48.402 0-94.009-12.237-134.629-33.411 6.211-6.432 9.93-15.127 9.93-24.402l4.596-64.148c2.679-27.992-10.992-55.042-34.061-67.087l-23.093-12.045c-12.563-7.515-22.353-21.44-26.302-37.916l-6.836-33.314c-7.574-26.473-22.469-52.682-40.065-71.038l-43.505-45.382c7.552-33.002 20.068-63.907 36.694-92.018l54.683 8.479c18.29 2.723 36.671 0.024 54.729-8.045l51.427-26.834c11.338-4.673 22.261-15.755 32.445-33.435l2.749-5.662c7.389-13.489 20.367-22.258 33.53-22.258 34.338 0 62.373-26.208 66.206-59.764 148.669 19.825 264.038 152.313 264.038 312.695 0 3.059-0.37 6.022-0.462 9.057l-51.427-31.484c-20.898-12.165-36.37-1.469-48.748 7.131-4.734 3.276-9.629 6.672-14.917 9.13l-19.905 12.839c-5.103 1.926-12.886 0.987-19.443-3.661-7.113-5.034-11.385-13.346-11.385-22.258v-142.148c-2.978-28.594-20.575-49.213-45.999-55.114l-15.472-4.626c-3.717-0.867-7.483-1.301-11.177-1.301-24.086 0-46.624 17.416-51.773 41.577-0.185 0.844-0.277 1.734-0.277 2.601v4.818c-1.709 11.658-9.121 26.208-19.72 37.265l-85.303 86.598c-19.789 17.681-23.763 50.851-8.29 73.446l24.941 42.637c11.963 21.897 36.785 31.003 60.086 21.873 13.786-5.397 28.588 0.385 36.97 14.381l18.105 35.411c8.083 16.863 24.57 29.508 42.929 32.712 16.742 3.493 30.021 19.921 31.96 39.891l8.498 77.903c-37.272 17.175-78.398 26.907-121.721 26.907zM639.594 725.607l-7.597-69.35c-2.909-30.255-23.807-55.405-50.78-61.041-11.361-1.975-21.661-9.828-26.556-20.066l-18.636-36.421c-14.525-24.306-41.127-34.181-65.051-24.884-12.909 5.083-25.494 0.53-32.098-11.562l-25.563-43.648c-8.868-13.008-6.489-32.472 4.596-42.397l85.973-87.226c14.317-14.935 23.923-34.11 26.464-52.705l0.092-4.963c3.695-14.213 19.952-24.402 34.476-21.102l15.472 4.626c16.373 3.829 26.833 16.139 28.658 33.122l-0.069 140.798c0 16.91 8.059 32.688 21.523 42.203 13 9.153 28.566 11.033 42.813 5.106l20.276-13.032c5.705-2.482 11.639-6.625 16.927-10.285 12.862-8.912 16.904-10.623 24.479-6.264l61.242 37.457c-11.407 104.473-71.771 193.625-156.636 241.634zM495.821 132.497c5.265 0 10.392 0.53 15.588 0.819-2.84 21.222-21.061 37.698-43.298 37.698-21.753 0-41.912 13.081-53.897 35.001l-2.61 5.397c-6.858 11.827-14.502 20.113-21.661 23.078l-51.681 26.93c-13.716 6.119-27.596 8.239-41.705 6.070l-43.645-6.721c55.167-77.662 143.357-128.272 242.908-128.272zM177.192 378.344c-4.527 22.499-6.974 45.816-6.974 69.688 0 118.95 59.047 223.639 148.045 284.342 0.739 0.987 1.524 1.975 2.586 2.697 2.494 1.734 5.149 3.011 7.875 3.951 48.909 30.665 105.972 48.684 167.097 48.684 179.543 0 325.626-152.384 325.626-339.674 0-187.265-146.083-339.625-325.626-339.625-114.077 0-214.459 61.619-272.63 154.528-0.254 0.385-0.509 0.794-0.716 1.253-20.345 32.761-35.355 69.376-43.898 108.543-0.877 1.807-1.432 3.686-1.385 5.612zM955.612 269.995c5.011 4.12 5.843 11.683 1.87 16.91l-39.512 52.056 17.92 41.529c2.61 6.070 0.022 13.2-5.796 15.923-5.727 2.723-12.654 0.073-15.265-6.046l-17.942-41.553-66.944-4.361c-6.374-0.434-11.222-6.142-10.807-12.79 0.393-6.625 5.843-11.731 12.239-11.249l54.799 3.564-31.498-73.036-43.367-12.936c-6.142-1.807-9.676-8.504-7.92-14.887s8.083-10.166 14.294-8.263l39.672 11.827 18.636-35.024c2.124-3.951 6.073-6.191 10.091-6.191 1.916 0 3.833 0.506 5.635 1.518 5.565 3.227 7.574 10.55 4.48 16.38l-20.276 38.108 31.382 72.772 32.098-42.3c2.287-2.988 5.635-4.577 9.051-4.577 2.517 0 5.033 0.867 7.159 2.625z" />
<glyph unicode="&#xe92b;" glyph-name="sail" d="M512 26.509c-124.607 0-227.251 61.925-237.699 140.524h475.397c-10.476-78.599-113.063-140.524-237.699-140.524v0zM449.175 275.694h205.176l-42.505-82.151h-205.176l42.505 82.151zM344.722 759.426v-457.225h-65.814v286.534l-4.771 255.52 70.585-84.829zM729.679 302.202h-357.536v424.275l181.401-217.983 176.135-206.292zM764.287 193.543h-121.756l42.478 82.151h73.794c5.293 0 10.146 2.969 12.396 7.635 2.275 4.613 1.562 10.101-1.81 14.077l-194.591 227.843-304.418 365.823c-3.647 4.401-9.845 6.043-15.356 4.162-5.511-1.936-9.132-7.051-9.023-12.698l5.484-294.036v-299.551c0-7.316 6.142-13.254 13.712-13.254h153.32l-42.505-82.151h-116.299c-7.595 0-13.712-5.938-13.712-13.254 0-101.104 116.848-180.286 265.999-180.286s265.999 79.182 265.999 180.286c0 7.316-6.115 13.254-13.712 13.254v0z" />
<glyph unicode="&#xe92c;" glyph-name="cruise" d="M996.674 59.64h-60.115v66.311c0 22.5-9.127 42.816-24.401 58.073h16.204c38.309 0 68.313-24.296 68.313-55.282v-69.102zM28.305 60.331c-0.683 0.885-0.956 2.045-1.448 2.045-0.137 0-0.301-0.111-0.492-0.332 35.14 44.419 124.52 119.354 328.173 121.98l493.652 0.028c34.812-2.35 61.044-27.337 61.044-58.101v-66.311l-880.929 0.691zM554.010 812.14l51.917-62.69v-413.399h-51.917v476.089zM633.253 336.050v380.396l315.029-380.396h-315.029zM928.362 211.665h-374.352v96.744h423.537c5.301 0 10.138 3.096 12.378 7.961 2.241 4.892 1.503 10.615-1.913 14.733l-437.199 527.944c-3.689 4.45-9.755 6.136-15.138 4.091-5.41-1.962-8.99-7.159-8.99-12.963v-638.508h-172.311c-215.048-2.792-311.204-84.112-350.032-133.313-5.601-8.513-5.793-20.427-0.519-30.461 5.274-9.951 14.919-15.893 25.85-15.893h980.665c7.542 0 13.662 6.191 13.662 13.821v82.923c0 46.52-41.998 82.923-95.637 82.923v0z" />
<glyph unicode="&#xe92d;" glyph-name="houseboat" d="M951.049 403.651h-81.055c-7.457 0-13.509-5.843-13.509-13.043s6.052-13.043 13.509-13.043h81.055c7.457 0 13.509 5.843 13.509 13.043s-6.052 13.043-13.509 13.043zM294.5 549.738v0c0 7.2-6.025 13.043-13.509 13.043h-78.353c-7.457 0-13.509-5.843-13.509-13.043s6.052-13.043 13.509-13.043h78.353c7.484 0 13.509 5.843 13.509 13.043zM837.571 390.608v0c0 7.2-6.052 13.043-13.509 13.043h-81.055c-7.484 0-13.509-5.843-13.509-13.043s6.025-13.043 13.509-13.043h81.055c7.457 0 13.509 5.843 13.509 13.043zM996.981 380.564c-2.486-82.122-70.14-146.478-154.005-146.478h-721.393c-52.118 0-94.565 40.957-94.565 91.305v125.217h969.963v-70.043zM185.076 614.956h225.604v-138.261h-277.885l52.281 138.261zM543.070 588.008l84.189-111.313h-84.189v111.313zM437.698 476.694v138.261h78.353v-138.261h-78.353zM715.988 476.694v20.87h108.074v-20.87h-108.074zM883.503 591.477v39.13h59.441v-39.13h-59.441zM1010.49 476.694h-40.528v198.261c0 7.226-6.025 13.043-13.509 13.043-7.457 0-13.509-5.817-13.509-13.043v-18.261h-72.95c-7.457 0-13.509-5.817-13.509-13.043v-65.217c0-7.2 6.052-13.043 13.509-13.043h72.95v-88.695h-91.863v33.913c0 7.2-6.052 13.043-13.509 13.043h-127.311l-25.803 43.043c-3.783 6.287-12.104 8.348-18.454 4.774-6.458-3.626-8.673-11.583-4.917-17.817l27.883-46.539v-30.417h-28.234l-120.232 159c-0.189 0.235-0.513 0.339-0.729 0.574-0.864 1.017-1.918 1.826-3.080 2.557-0.487 0.287-0.892 0.678-1.405 0.887-1.756 0.809-3.647 1.33-5.728 1.33h-372.855c-7.457 0-13.509-5.843-13.509-13.043 0-7.070 5.863-12.783 13.131-12.965l-52.308-138.339h-90.512c-7.457 0-13.509-5.817-13.509-13.043v-138.261c0-64.722 54.55-117.391 121.583-117.391h721.393c98.564 0 178.106 75.47 181.024 172.2v83.452c0 7.226-6.025 13.043-13.509 13.043v0z" />
<glyph unicode="&#xe92e;" glyph-name="party" d="M499.892 687.741l-280.908 60.541c-2.422 0-7.265 0-9.686-2.422s-2.422-2.422-4.843-7.265l-50.855-234.898c-7.265-31.48 0-62.963 16.951-89.6s43.589-46.011 75.071-50.855l24.216-4.843-62.963-300.28-108.973 24.216c-7.265 2.422-12.108-2.422-14.529-9.686s2.422-12.108 9.686-14.529l121.080-26.637c0 0 0 0 0 0s0 0 0 0l121.080-26.637c0 0 2.422 0 2.422 0 4.843 0 9.686 4.843 12.108 9.686 2.422 7.265-2.422 12.108-9.686 14.529l-108.973 24.216 62.963 297.859 24.216-4.843c7.265-2.422 16.951-2.422 24.216-2.422 21.794 0 43.589 7.265 62.963 19.373 26.637 16.951 43.589 43.589 50.855 75.071l19.373 89.6c0 0 0 0 0 2.422l31.48 145.298c0 2.422 0 7.265-2.422 9.686 2.422 0-2.422 2.422-4.843 2.422zM393.341 382.615c-21.794-14.529-46.011-16.951-70.227-12.108v0l-72.649 16.951c-24.216 4.843-46.011 19.373-60.541 41.167-12.108 19.373-16.951 43.589-12.108 70.227 0 0 0 0 0 0 14.529 12.108 50.855 43.589 111.394 16.951 41.167-19.373 77.492-29.059 106.551-29.059 19.373 0 33.902 4.843 48.433 12.108l-12.108-55.698c-2.422-26.637-16.951-46.011-38.745-60.541zM453.88 535.178c-26.637-33.902-77.492-33.902-154.984 2.422-41.167 19.373-79.914 16.951-113.816-4.843l41.167 191.308 256.692-55.698-29.059-133.189zM940.627 72.648c-2.422 7.265-7.265 9.686-14.529 9.686l-108.973-24.216-62.963 300.28 24.216 4.843c31.48 7.265 58.12 24.216 75.071 50.855s24.216 58.12 16.951 89.6l-50.855 234.898c0 2.422-2.422 4.843-4.843 7.265s-4.843 2.422-9.686 2.422l-280.908-60.541c-2.422 0-4.843-2.422-7.265-4.843s-2.422-4.843-2.422-9.686l31.48-150.141c0 0 0 0 0 0l19.373-87.178c7.265-31.48 24.216-58.12 50.855-75.071 19.373-12.108 41.167-19.373 62.963-19.373 7.265 0 16.951 0 24.216 2.422l24.216 4.843 65.384-300.28-108.973-24.216c-7.265-2.422-9.686-7.265-9.686-14.529 2.422-4.843 7.265-9.686 12.108-9.686 0 0 2.422 0 2.422 0l121.080 26.637c0 0 0 0 0 0s0 0 0 0l121.080 26.637c7.265 4.843 12.108 12.108 9.686 19.373zM797.751 721.643l41.167-188.886c-33.902 19.373-72.649 21.794-113.816 2.422-77.492-33.902-125.924-36.324-154.984-2.422l-29.059 135.611 256.692 53.276zM700.886 370.507c-24.216-4.843-48.433 0-70.227 12.108-21.794 14.529-36.324 33.902-41.167 58.12l-12.108 53.276c14.529-7.265 31.48-12.108 48.433-12.108 36.324 0 75.071 14.529 108.973 29.059 62.963 26.637 96.865-2.422 111.394-14.529 0 0 0 0 0 0v0c12.108-50.855-21.794-101.708-72.649-111.394l-72.649-14.529zM390.92 825.772c-4.843 4.843-2.422 12.108 2.422 16.951s12.108 2.422 16.951-2.422l33.902-48.433c4.843-4.843 2.422-12.108-2.422-16.951-2.422-2.422-4.843-2.422-7.265-2.422-4.843 0-7.265 2.422-9.686 4.843l-33.902 48.433zM516.843 791.87c0-7.265-4.843-12.108-12.108-12.108 0 0 0 0 0 0-7.265 0-12.108 4.843-12.108 12.108l-2.422 92.022c0 7.265 4.843 12.108 12.108 12.108s12.108-4.843 12.108-12.108l2.422-92.022zM567.698 774.919c-4.843 4.843-7.265 12.108-2.422 16.951l31.48 46.011c4.843 4.843 12.108 7.265 16.951 2.422s7.265-12.108 2.422-16.951l-31.48-43.589c-2.422-2.422-7.265-4.843-9.686-4.843s-4.843 0-7.265 0z" />
<glyph unicode="&#xe92f;" glyph-name="itinerary-full" d="M746.493 652.1c0 13.876-11.1 24.976-24.976 24.976h-5.55c-13.876 0-24.976-11.1-24.976-24.976s11.1-24.976 24.976-24.976h5.55c13.876 0 24.976 11.1 24.976 24.976zM876.921 316.317c-2.775-2.775-5.55-2.775-11.1-5.55-13.876-5.55-19.426-19.426-13.876-30.526 2.775-11.1 13.876-16.65 22.2-16.65 2.775 0 5.55 0 8.326 2.775 5.55 2.775 8.326 2.775 13.876 5.55 11.1 5.55 16.65 19.426 11.1 33.301-2.775 11.1-19.426 16.65-30.526 11.1zM865.821 643.775c2.775 13.876-5.55 24.976-19.426 27.751-5.55 0-8.326 2.775-13.876 2.775-13.876 2.775-24.976-8.326-27.751-22.2s8.326-24.976 22.2-27.751c2.775 0 5.55 0 11.1-2.775h5.55c11.1 2.775 22.2 11.1 22.2 22.2zM768.693 302.441h-11.1c-13.876 0-24.976-11.1-24.976-24.976s11.1-24.976 24.976-24.976h11.1c13.876 0 24.976 11.1 24.976 24.976s-11.1 24.976-24.976 24.976zM629.94 302.441h-5.55c-13.876 0-24.976-11.1-24.976-24.976s11.1-24.976 24.976-24.976h5.55c13.876 0 24.976 11.1 24.976 24.976s-11.1 24.976-24.976 24.976zM468.987 824.154v0c13.876 0 24.976 11.1 24.976 22.2v11.1c0 13.876-8.326 24.976-22.2 27.751s-24.976-8.326-27.751-22.2v-13.876c0-13.876 11.1-24.976 24.976-24.976zM518.938 754.777c-5.55 11.1-22.2 13.876-33.301 8.326s-13.876-22.2-8.326-33.301c2.775-2.775 5.55-8.326 8.326-11.1 5.55-5.55 11.1-11.1 19.426-11.1 5.55 0 11.1 2.775 13.876 5.55 11.1 8.326 13.876 22.2 5.55 33.301-2.775 0-5.55 5.55-5.55 8.326zM627.165 654.875c2.775 11.1-2.775 24.976-16.65 30.526-2.775 0-5.55 2.775-11.1 2.775-13.876 5.55-27.751-2.775-30.526-13.876-5.55-13.876 2.775-27.751 13.876-30.526 5.55-2.775 8.326-2.775 13.876-5.55h8.326c8.326-2.775 16.65 5.55 22.2 16.65zM338.559 399.569c0 47.176-38.851 86.027-86.027 86.027s-86.027-38.851-86.027-86.027c0-47.176 38.851-86.027 86.027-86.027s86.027 38.851 86.027 86.027zM502.288 399.569c0-55.501-19.426-111.002-55.501-155.403l-180.379-227.555c-8.326-8.326-22.2-8.326-30.526 0l-180.379 227.555c-36.076 44.401-55.501 99.902-55.501 158.179 2.775 122.103 94.352 227.555 216.455 244.206 155.403 22.2 285.832-97.128 285.832-246.981zM962.948 571.623c11.1 8.326 11.1 24.976 2.775 33.301-2.775 2.775-5.55 5.55-8.326 11.1-11.1 8.326-24.976 8.326-33.301 0-8.326-11.1-8.326-24.976 0-33.301 2.775-2.775 5.55-5.55 8.326-8.326 5.55-5.55 11.1-8.326 19.426-8.326 0 0 5.55 2.775 11.1 5.55zM1018.45 496.696c-2.775 13.876-13.876 22.2-27.751 19.426s-22.2-13.876-19.426-27.751c0-2.775 0-5.55 2.775-11.1 0-13.876 11.1-22.2 24.976-22.2h2.775c13.876 0 22.2 11.1 22.2 24.976-5.55 8.326-5.55 13.876-5.55 16.65zM993.474 366.268c-2.775-2.775-5.55-8.326-5.55-11.1-5.55-8.326-13.876-11.1-22.2-11.1-5.55 0-8.326 0-13.876 2.775-11.1 8.326-13.876 22.2-8.326 33.301 2.775 2.775 2.775 5.55 5.55 8.326 5.55 11.1 22.2 16.65 33.301 11.1 13.876-8.326 19.426-22.2 11.1-33.301z" />
<glyph unicode="&#xe930;" glyph-name="itinerary" d="M443.485 259.651c35.377 40.957 53.079 90.344 53.079 147.31 0 68.518-29.514 133.572-80.938 178.503-42.418 37.012-96.367 56.994-151.888 56.994-11.446 0-22.949-0.851-34.451-2.583-113.032-13.311-201.235-114.329-201.235-230.047 0-58.072 16.86-108.538 50.161-150.006l179.661-230.075c1.375-1.221 4.713-1.249 5.583-0.682l180.026 230.586zM433.947 606.95c57.624-50.324 90.673-123.184 90.673-199.989 0-64.033-20.031-119.692-59.56-165.447l-179.129-229.338c-3.984-6.159-11.783-10.729-20.676-11.609-1.094-0.114-2.216-0.171-3.31-0.171-9.174 0-18.348 3.804-24.968 10.531l-180.644 231.154c-37.341 46.52-56.333 103.003-56.333 167.746 0 129.883 99.117 243.302 225.615 258.175 74.849 11.268 150.99-10.985 208.333-61.052zM263.706 336.014c39.978 0 70.137 30.512 70.137 70.958 0 39.113-31.477 70.958-70.137 70.958-39.978 0-70.137-30.512-70.137-70.958s30.159-70.958 70.137-70.958zM263.706 506.314c54.145 0 98.191-44.562 98.191-99.342 0-55.717-43.148-99.342-98.191-99.342s-98.191 43.625-98.191 99.342c0 55.689 43.148 99.342 98.191 99.342zM990.317 406.972c11.222-5.677 16.86-22.706 5.611-34.060 0-2.839-2.777-8.515-5.611-11.353-2.805-5.677-11.194-11.353-19.639-11.353-2.805 0-8.417 0-11.222 2.867-11.222 8.487-16.832 22.678-8.389 34.031 2.777 2.839 2.777 5.677 5.583 8.544 5.611 14.192 22.472 17.001 33.666 11.325zM1021.194 506.314c2.805-5.677 2.805-8.515 2.805-14.192 0-14.192-8.417-25.545-19.667-28.383h-2.777c-14.027 0-25.277 11.353-25.277 22.706-2.777 5.677-2.777 8.515-2.777 11.353-2.833 14.192 5.611 25.545 19.639 28.383s25.221-5.677 28.054-19.869zM970.674 580.113c-5.583-2.839-11.194-5.677-16.832-5.677-5.611 0-11.222 2.839-16.804 8.515-2.833 2.839-5.611 5.677-8.445 8.515-8.417 8.515-8.417 25.545 0 34.060 8.445 8.515 25.249 8.515 33.666 0 2.833-2.839 5.611-5.677 8.417-8.515 8.445-11.353 8.445-25.545 0-36.899zM634.018 662.423c-2.805-11.353-11.194-17.030-22.444-17.030h-8.417c-5.611 2.839-8.389 2.839-14.027 5.677-11.222 2.839-19.639 19.869-14.027 31.222 2.805 11.353 19.667 19.869 30.86 14.192 5.611 0 8.445-2.839 11.222-2.839 14.027-5.677 19.667-17.030 16.832-31.222zM527.416 764.605c2.805-2.839 2.805-5.677 5.611-8.515 5.611-11.353 5.611-28.383-5.611-34.060-5.611-2.839-8.417-5.677-14.027-5.677-8.417 0-14.027 5.677-19.639 11.353-2.805 2.839-5.611 8.515-8.417 11.353-5.611 11.353-2.805 28.383 8.417 34.060s28.054 2.839 33.666-8.515zM476.924 832.722c-14.027 0-22.444 11.353-22.444 25.545v14.192c2.805 14.192 14.027 25.545 28.054 22.706 11.222-2.839 22.444-14.192 19.639-28.383v-11.353c-2.805-11.353-11.222-22.706-25.249-22.706zM639.634 307.631c14.027 0 22.444-8.515 25.249-25.517 0-14.192-11.222-25.574-25.249-25.574h-5.611c-14.027 0-25.249 11.382-25.249 25.574s11.222 25.517 25.249 25.517h5.611zM777.114 307.631c11.194 0 22.444-8.515 25.221-25.517 0-14.192-11.194-25.574-25.221-25.574h-11.222c-14.027 0-25.249 11.382-25.249 25.574s11.222 25.517 25.249 25.517h11.222zM872.482 653.913c0-11.353-11.194-19.869-22.444-19.869h-5.611c-5.583 2.839-8.417 2.839-11.194 2.839-14.027 2.839-25.277 14.192-22.444 28.383 2.777 11.353 14.027 22.706 28.054 19.869 5.583 0 8.417-2.839 14.027-2.839 14.027-2.839 22.444-14.192 19.611-28.383zM880.921 324.677c14.027 5.648 28.054 0 33.638-11.353 5.611-11.382 0-25.574-14.027-34.088-2.777-2.81-5.583-2.81-11.194-5.677-2.833-2.81-5.611-2.81-8.417-2.81-8.445 0-19.639 8.487-22.472 17.001-5.583 11.382 2.833 25.574 14.027 31.25 2.833 2.81 5.611 2.81 8.445 5.677zM754.675 659.595c0-14.192-11.222-25.545-25.249-25.545h-5.639c-14.027 0-25.221 11.353-25.221 25.545s11.194 25.545 25.221 25.545h5.639c14.027 0 25.249-8.515 25.249-25.545z" />
<glyph unicode="&#xe931;" glyph-name="catalogue" d="M310.362 701.459c0 7.332 4.889 12.22 12.22 12.22h185.752c7.332 0 12.22-4.889 12.22-12.22s-4.889-12.22-12.22-12.22h-185.752c-4.889 0-12.22 4.889-12.22 12.22zM637.871 633.024h-320.177c-7.332 0-12.22-4.889-12.22-12.22s4.889-12.22 12.22-12.22h322.623c7.332 0 12.22 4.889 12.22 12.22s-7.332 12.22-14.665 12.22zM916.499 850.549v-801.666c0-2.443 0-2.443 0-4.889-19.552-39.106-80.656-43.995-117.317-43.995-4.889 0-9.777 0-14.665 0h-7.332c0 0 0 0 0 0s0 0-2.443 0h-613.471c-29.329 0-53.77 24.441-53.77 53.77v787.003c0 29.329 24.441 53.77 53.77 53.77h613.471c0 0 2.443 0 2.443 0s0 0 0 0 0 0 0 0c4.889 0 9.777 0 17.109 0 34.218 2.443 87.987 7.332 119.762-39.106 0-2.443 2.443-2.443 2.443-4.889zM850.509 845.662c-4.889 12.22-17.109 19.552-29.329 21.997 4.889-7.332 7.332-17.109 7.332-26.886v-789.446c0-9.777-2.443-17.109-7.332-24.441 14.665 2.443 26.886 9.777 29.329 21.997v796.778zM161.271 21.998h613.471c0 0 0 0 0 0 14.665 0 29.329 12.22 29.329 29.329v789.446c0 7.332-2.443 14.665-9.777 21.997-4.889 4.889-12.22 7.332-19.552 7.332 0 0 0 0 0 0h-613.471c-14.665 0-29.329-12.22-29.329-29.329v-789.446c2.443-14.665 14.665-29.329 29.329-29.329zM892.059 845.662c-7.332 9.777-14.665 14.665-21.997 19.552 2.443-2.443 4.889-7.332 7.332-12.22 0-2.443 0-2.443 0-4.889v-801.666c0 0 0-2.443 0-2.443 0-2.443-2.443-4.889-2.443-7.332 9.777 4.889 14.665 9.777 19.552 17.109v791.889z" />
<glyph unicode="&#xe932;" glyph-name="contract" d="M269.094 666.844c0 6.875 4.584 11.459 11.459 11.459h217.698c6.875 0 11.459-4.584 11.459-11.459s-4.584-11.459-11.459-11.459h-217.698c-6.875 0-11.459 6.875-11.459 11.459zM280.552 563.724h366.65c6.875 0 11.459 4.584 11.459 11.459s-4.584 11.459-11.459 11.459h-366.65c-6.875 0-11.459-4.584-11.459-11.459s4.584-11.459 11.459-11.459zM280.552 472.061h366.65c6.875 0 11.459 4.584 11.459 11.459s-4.584 11.459-11.459 11.459h-366.65c-6.875 0-11.459-4.584-11.459-11.459s4.584-11.459 11.459-11.459zM656.368 391.857c0 6.875-4.584 11.459-11.459 11.459h-366.65c-6.875 0-11.459-4.584-11.459-11.459s4.584-11.459 11.459-11.459h366.65c6.875 0 11.459 4.584 11.459 11.459zM887.816 169.576c0-93.954-75.621-169.575-169.575-169.575-61.873 0-114.578 32.081-144.368 80.204h-396.44c-22.915 0-41.249 18.333-41.249 41.249v623.304c0 0 0 0 0 2.291 0 0 0 2.291 0 2.291s0 2.291 2.291 2.291c0 0 0 0 0 2.291l130.619 139.784c0 0 0 0 0 0s2.291 2.291 2.291 2.291c0 0 0 0 2.291 0 0 0 0 0 2.291 0 0 0 2.291 0 2.291 0s0 0 0 0h469.77c22.915 0 41.249-18.333 41.249-41.249v-531.642c57.289-27.499 98.538-87.079 98.538-153.534zM175.14 756.216h93.954v98.538l-93.954-98.538zM562.414 103.12c-9.166 20.624-13.75 41.249-13.75 64.164 0 93.954 75.621 169.575 169.575 169.575 16.040 0 32.081-2.291 48.123-6.875v522.475c0 9.166-6.875 18.333-18.333 18.333h-458.311v-126.035c0-6.875-4.584-11.459-11.459-11.459h-119.161v-611.847c0-9.166 9.166-18.333 18.333-18.333h384.982zM864.901 169.576c0 80.204-66.455 146.659-146.659 146.659s-146.659-66.455-146.659-146.659c0-80.204 66.455-146.659 146.659-146.659s146.659 64.164 146.659 146.659zM738.864 242.907c6.875 0 13.75 0 20.624-2.291s11.459 2.291 13.75 9.166c2.291 6.875-2.291 11.459-9.166 13.75-9.166 2.291-16.040 2.291-25.207 2.291-45.831 0-82.495-32.081-93.954-73.33h-22.915c-6.875 0-11.459-4.584-11.459-11.459s4.584-11.459 11.459-11.459h18.333c0 0 0-2.291 0-2.291 0-2.291 0-4.584 0-6.875h-18.333c-6.875 0-11.459-4.584-11.459-11.459s4.584-11.459 11.459-11.459h25.207c13.75-38.956 48.123-66.455 91.663-66.455 9.166 0 18.333 0 25.207 2.291s9.166 6.875 9.166 13.75c-2.291 6.875-6.875 9.166-13.75 9.166-6.875-2.291-13.75-2.291-20.624-2.291-29.79 0-57.289 18.333-68.747 43.54h77.913c6.875 0 11.459 4.584 11.459 11.459s-4.584 11.459-11.459 11.459h-84.788c0 2.291 0 4.584 0 6.875 0 0 0 2.291 0 2.291h84.788c6.875 0 11.459 4.584 11.459 11.459s-4.584 11.459-11.459 11.459h-80.204c9.166 29.79 36.665 50.414 71.039 50.414z" />
<glyph unicode="&#xe933;" glyph-name="data-sheet" d="M870.197 737.249c0 2.691-2.691 5.382-2.691 8.071l-139.916 145.298c-2.691 2.691-5.382 5.382-10.762 5.382h-497.777c-37.669 0-67.267-29.598-67.267-67.267v-761.466c0-37.669 29.598-67.267 67.267-67.267h583.879c37.669 0 67.267 29.598 67.267 67.267v669.982c2.691 0 2.691 0 0 0zM730.281 847.567l96.865-96.865h-96.865v96.865zM181.382 64.576v761.466c0 21.525 18.836 40.36 40.36 40.36h48.433v-842.187h-51.122c-21.525 2.691-37.669 18.836-37.669 40.36zM845.981 64.576c0-21.525-18.836-40.36-40.36-40.36h-508.541v842.187h406.294v-129.154c0-8.071 5.382-13.453 13.453-13.453h129.154v-659.219zM383.182 546.211c0 8.071 5.382 13.453 13.453 13.453h185.658c8.071 0 13.453-5.382 13.453-13.453s-5.382-13.453-13.453-13.453h-185.658c-8.071 0-13.453 5.382-13.453 13.453zM716.828 478.944c8.071 0 13.453-5.382 13.453-13.453s-5.382-13.453-13.453-13.453h-320.192c-8.071 0-13.453 5.382-13.453 13.453s5.382 13.453 13.453 13.453h320.192zM730.281 382.079c0-8.071-5.382-13.453-13.453-13.453h-320.192c-8.071 0-13.453 5.382-13.453 13.453s5.382 13.453 13.453 13.453h320.192c5.382 0 13.453-8.071 13.453-13.453z" />
<glyph unicode="&#xe934;" glyph-name="empty" d="M357.637 131.692c19.419-9.846 38.836-19.693 58.255-19.693 29.127 0 38.836 0 58.255 19.693l485.453 521.846c29.127 29.539 29.127 78.769-19.418 108.308-29.127 29.539-77.673 29.539-106.8 0l-427.198-462.77-233.018 256c-29.127 29.539-77.673 29.539-106.8 0s-29.127-78.769 0-108.308l291.272-315.077z" />
<glyph unicode="&#xe935;" glyph-name="howitworks" d="M814.331 118.184c90.699 85.202 142.919 203.386 142.919 329.816 2.749 247.361-197.889 448-445.251 448s-448-200.639-448-448c0-247.361 200.639-448 448-448h376.539c10.994 0 19.24 5.496 21.987 16.491s0 19.24-8.245 27.485l-87.951 74.208zM512 27.485c-230.871 0-420.515 186.895-420.515 420.515s189.644 420.515 420.515 420.515 420.515-189.644 420.515-420.515c0-123.682-52.221-239.116-145.669-318.822-2.749-2.749-5.496-5.496-5.496-10.994s2.749-8.245 5.496-10.994l96.197-79.706h-371.043zM355.337 582.674c0 8.245 5.496 13.742 13.742 13.742h236.369c8.245 0 13.742-5.496 13.742-13.742s-5.496-13.742-13.742-13.742h-236.369c-8.245 0-13.742 8.245-13.742 13.742zM696.148 472.736c0-8.245-5.496-13.742-13.742-13.742h-313.326c-8.245 0-13.742 5.496-13.742 13.742s5.496 13.742 13.742 13.742h313.326c8.245 0 13.742-5.496 13.742-13.742zM696.148 362.798c0-8.245-5.496-13.742-13.742-13.742h-313.326c-8.245 0-13.742 5.496-13.742 13.742s5.496 13.742 13.742 13.742h313.326c8.245 0 13.742-5.496 13.742-13.742z" />
<glyph unicode="&#xe936;" glyph-name="list" d="M941.7 895.381h-856.624c-46.938 0-85.076-38.137-85.076-85.076v-724.61c0-46.938 38.137-85.076 85.076-85.076h856.624c23.469 0 44.005 8.801 58.673 26.403s23.469 38.137 23.469 61.606v721.676c2.934 46.938-35.204 85.076-82.142 85.076zM997.439 82.762c0-14.668-5.867-29.336-14.668-38.137-11.735-11.735-23.469-17.602-38.137-17.602h-859.557c-32.27 0-55.739 23.469-55.739 55.739v727.543c0 32.27 23.469 55.739 55.739 55.739h856.624c32.27 0 55.739-23.469 55.739-55.739v-727.543zM310.967 795.637h-205.355c-14.668 0-26.403-11.735-26.403-26.403v-266.961c0-14.668 11.735-26.403 26.403-26.403h205.355c14.668 0 26.403 11.735 26.403 26.403v264.028c2.934 14.668-11.735 29.336-26.403 29.336zM310.967 502.273h-202.421v264.028h202.421v-264.028zM618.999 795.637h-205.355c-14.668 0-26.403-11.735-26.403-26.403v-266.961c0-14.668 11.735-26.403 26.403-26.403h205.355c14.668 0 26.403 11.735 26.403 26.403v264.028c0 14.668-11.735 29.336-26.403 29.336zM616.065 502.273h-202.421v264.028h202.421v-264.028zM927.032 795.637h-205.355c-14.668 0-26.403-11.735-26.403-26.403v-266.961c0-14.668 11.735-26.403 26.403-26.403h205.355c14.668 0 26.403 11.735 26.403 26.403v264.028c0 14.668-11.735 29.336-26.403 29.336zM924.098 502.273h-202.421v264.028h202.421v-264.028zM310.967 387.861h-205.355c-14.668 0-26.403-11.735-26.403-26.403v-264.028c0-14.668 11.735-26.403 26.403-26.403h205.355c14.668 0 26.403 11.735 26.403 26.403v264.028c2.934 14.668-11.735 26.403-26.403 26.403zM310.967 100.364h-202.421v258.161h202.421v-258.161zM618.999 387.861h-205.355c-14.668 0-26.403-11.735-26.403-26.403v-264.028c0-14.668 11.735-26.403 26.403-26.403h205.355c14.668 0 26.403 11.735 26.403 26.403v264.028c0 14.668-11.735 26.403-26.403 26.403zM616.065 100.364h-202.421v258.161h202.421v-258.161zM927.032 387.861h-205.355c-14.668 0-26.403-11.735-26.403-26.403v-264.028c0-14.668 11.735-26.403 26.403-26.403h205.355c14.668 0 26.403 11.735 26.403 26.403v264.028c0 14.668-11.735 26.403-26.403 26.403zM924.098 100.364h-202.421v258.161h202.421v-258.161z" />
<glyph unicode="&#xe937;" glyph-name="map" d="M995.397 276.938c-10.612-1.774-20.508-3.318-22.912-3.404-18.192 0-45.766-47.567-48.397-63.442-1.315-7.78-12.213-25.6-38.929-52.315-7.179-7.179-9.982-7.265-23.341-7.666-7.58-0.2-17.906-0.486-31.635-2.603-36.441-5.635-83.779-58.922-98.967-77.086h-192.272c-0.629 2.574-0.83 5.206-2.117 7.666-12.157 23.255-51.257 34.153-66.789 37.585-3.118 1.172-12.957 8.752-19.45 13.786-18.535 14.273-32.608 24.542-44.078 26.43-24.056 5.52-33.237 35.383-42.104 64.272-1.573 5.12-3.118 10.154-4.634 14.674-10.383 33.694-69.935 73.339-108.063 86.897-13.53 4.805-24.828 6.493-34.324 5.749v23.255c0 0.715-0.314 1.345-0.401 2.030 21.624 5.778 37.585 24.342 37.585 46.595 0 26.859-23.055 48.626-51.486 48.626s-51.486-21.767-51.486-48.626c0-22.254 15.961-40.817 37.585-46.595-0.086-0.687-0.401-1.315-0.401-2.030v-33.981c-8.895-3.175-17.991-3.947-25.171-1.488-7.437 2.574-12.671 8.323-15.675 17.248-13.043 37.871-40.559 55.376-77.2 49.141-12.356-2.060-28.403-8.352-42.133-16.075v37.871l31.835 22.768c3.747 1.43 6.979 4.319 9.725 8.81 1.087 1.087 2.002 2.346 2.689 3.719l33.295 66.588c2.603 2.689 5.549 6.064 8.495 11.355 19.736 20.165 35.154 44.107 44.793 69.792l11.47 34.61c3.375 4.777 26.487 8.037 37.585 9.611 12.642 1.802 24.57 3.461 31.263 6.264l51.486 8.581c1.001 0.171 2.002 0.457 2.975 0.83 22.768 9.124 39.072 42.391 44.936 56.091 12.528 28.203-0.658 61.583-16.647 83.093l-5.006 34.267c0 1.974-0.658 3.862-1.144 5.749h468.78l-9.639-85.581c-4.72-21.080-23.655-38.929-45.279-43.277-23.426-3.347-44.907-16.933-55.519-34.638l-25.6-37.013c-10.268-14.388-28.060-19.994-45.565-15.56v58.751c0 0.715-0.314 1.315-0.429 2.002 21.653 5.778 37.613 24.342 37.613 46.595 0 26.859-23.055 48.654-51.486 48.654s-51.486-21.796-51.486-48.654c0-22.254 15.961-40.845 37.585-46.595-0.086-0.687-0.401-1.287-0.401-2.002v-54.032c-20.766-0.372-40.702-9.839-51.486-26.086l-34.524-46.022c-18.993-26.573-14.473-60.325 10.983-82.177l111.611-94.42c15.36-12.814 24.284-27.116 26.344-40.502v-5.749c0-1.029 0.115-2.060 0.343-3.089 6.207-28.060 32.636-46.652 64.214-46.652 5.406 0 10.955 0.544 16.59 1.688l19.565 5.578c29.233 7.322 53.002 32.866 56.606 62.527v154.458c0 8.609 5.292 14.358 9.725 17.677 9.096 6.75 22.167 9.124 33.494 6.15l27.917-14.988c3.804-3.032 7.58-6.236 11.384-9.382 24.914-20.967 59.037-49.713 92.389-15.989l15.389 23.569c3.69 3.69 6.722 7.923 9.925 11.956v-235.835zM920.999 70.422h-151.512c21.309 22.625 48.111 46.223 65.044 48.797 12.099 1.887 20.967 2.117 28.088 2.288 15.389 0.457 27.516 0.83 42.79 16.047 28.317 28.317 44.107 51.143 46.881 67.819 1.716 10.24 17.62 33.237 24.599 39.873 4.691 0.486 11.585 1.516 18.506 2.689v-108.836c0-37.871-33.38-68.677-74.397-68.677v0zM28.603 139.098v192.042c9.325 8.152 39.759 27.002 63.414 22.425 13.244-2.517 22.711-12.471 28.832-30.234 7.38-22.053 22.282-31.292 33.494-35.096 10.469-3.633 22.482-3.69 34.439-1.087v-22.225c0-7.894 6.379-14.302 14.302-14.302 7.894 0 14.302 6.407 14.302 14.302v34.038c2.346 0.801 10.87 1.259 28.46-5.578 37.099-14.416 80.805-48.197 86.697-67.275 1.516-4.605 3.003-9.439 4.519-14.358 10.211-33.18 22.912-74.512 63.9-83.922 6.207-1.029 22.453-13.558 32.15-21.023 13.929-10.755 22.167-16.905 30.005-18.85 18.163-4.033 34.495-10.926 42.963-17.534h-403.107c-41.017 0-74.369 30.806-74.369 68.677v0zM102.972 825.579h150.454l30.949-5.006c3.175-1.059 4.72-2.489 4.662-2.746l5.692-40.045c0.372-2.546 1.402-4.92 3.003-6.922 9.010-11.241 23.77-37.585 15.188-56.949-9.41-22.024-21.052-36.64-28.26-40.474l-52.287-8.953c-6.436-2.431-17.334-3.976-27.888-5.463-26.859-3.776-54.632-7.723-60.725-29.147l-11.269-33.837c-8.295-22.053-21.996-43.048-39.644-60.696-1.087-1.087-2.002-2.346-2.66-3.719-1.831-3.633-3.375-5.177-5.921-7.723-1.087-1.087-2.002-2.346-2.689-3.719l-33.466-66.989c-0.429-0.515-0.801-1.029-1.172-1.516-0.314-0.2-0.629-0.401-0.916-0.629l-17.419-12.443v318.298c0 37.871 33.351 68.677 74.369 68.677v0zM995.397 756.902v-168.759c0-23.14-11.269-48.225-31.921-69.277l-15.389-23.569c-11.098-11.069-22.683-4.834-52.001 19.822-3.947 3.318-7.923 6.665-13.987 11.212l-31.492 17.162c-0.858 0.486-1.774 0.858-2.717 1.144-20.365 6.121-43.362 2.231-60.067-10.24-13.701-10.183-21.253-24.628-21.253-40.617l0.115-152.685c-2.060-16.333-17.133-32.064-35.526-36.67l-18.907-5.435c-21.023-4.319-41.332 5.663-45.823 22.167l-0.115 5.892c-3.261 22.654-15.532 42.991-36.384 60.353l-111.496 94.334c-14.13 12.099-16.59 29.29-6.436 43.505l34.753 46.395c5.091 7.58 15.961 13.272 28.174 13.758v-5.806c0-7.923 6.379-14.302 14.302-14.302 7.894 0 14.302 6.379 14.302 14.302v0.486c26.887-4.148 52.973 6.178 68.963 28.546l26.229 37.957c6.665 11.126 20.651 19.679 36.298 21.939 33.208 6.636 61.326 33.466 68.648 66.76l10.24 90.3h107.091c67.361 0 74.397-20.937 74.397-68.677v0zM920.999 854.182h-818.027c-56.777 0-102.972-43.648-102.972-97.28v-617.804c0-53.631 46.195-97.28 102.972-97.28h818.027c56.806 0 103.001 43.648 103.001 97.28v617.804c0 61.612-16.847 97.28-103.001 97.28v0z" />
<glyph unicode="&#xe938;" glyph-name="mountain-route" d="M1021.954 88.032l-365.422 632.671c-2.727 5.454-8.181 5.454-10.908 5.454s-8.181-2.727-10.908-5.454l-62.722-106.354-122.716 209.981c-2.727 2.727-5.454 5.454-10.908 5.454 0 0 0 0 0 0-5.454 0-8.181-2.727-10.908-5.454l-425.417-736.298c-2.727-5.454-2.727-8.181 0-13.635s5.454-8.181 10.908-8.181h998.093c5.454 0 8.181 2.727 10.908 5.454 2.727 5.454 2.727 10.908 0 16.362zM438.369 788.879l122.716-209.981c2.727-5.454 8.181-5.454 10.908-5.454 0 0 0 0 0 0 5.454 0 8.181 2.727 10.908 5.454l62.722 106.354 111.808-193.619h-403.6c-29.997 0-51.814-21.816-51.814-51.814v-8.181c0-29.997 21.816-51.814 51.814-51.814h294.519c13.635 0 24.543-10.908 24.543-24.543v-8.181c0-13.635-10.908-24.543-24.543-24.543h-248.16c-29.997 0-51.814-21.816-51.814-51.814v-8.181c0-29.997 21.816-51.814 51.814-51.814h329.971c13.635 0 24.543-10.908 24.543-24.543s-10.908-24.543-24.543-24.543l-654.487-2.727 362.695 629.944zM37.496 93.486l21.816 38.178 670.849 2.727c29.997 0 51.814 21.816 51.814 51.814s-21.816 51.814-51.814 51.814h-329.971c-13.635 0-24.543 10.908-24.543 24.543v8.181c0 13.635 10.908 24.543 24.543 24.543h248.16c29.997 0 51.814 21.816 51.814 51.814v8.181c0 29.997-21.816 51.814-51.814 51.814h-294.519c-13.635 0-24.543 10.908-24.543 24.543v8.181c0 13.635 10.908 24.543 24.543 24.543h419.963l43.632-76.357 169.076-294.519h-949.007z" />
<glyph unicode="&#xe939;" glyph-name="newsletter" d="M259.086 402.6c0-7.689-6.24-13.93-13.93-13.93h-231.226c-7.689 0-13.93 6.24-13.93 13.93s6.24 13.93 13.93 13.93h231.226c7.689 0 13.93-6.24 13.93-13.93v0zM259.086 533.535c0-7.717-6.24-13.93-13.93-13.93h-108.649c-7.689 0-13.93 6.213-13.93 13.93 0 7.689 6.24 13.93 13.93 13.93h108.649c7.689 0 13.93-6.24 13.93-13.93v0zM117.006 670.043c0 7.689 6.24 13.93 13.93 13.93h200.582c7.689 0 13.93-6.24 13.93-13.93 0-7.717-6.24-13.93-13.93-13.93h-200.582c-7.689 0-13.93 6.213-13.93 13.93v0zM864.147 155.688c-1.727-6.073-5.627-10.948-10.698-13.372-4.596-2.173-9.778-2.173-14.988 0.056-0.362 0.167-0.78 0.306-1.17 0.446l-521.43 170.077c-13.066 3.733-15.74 16.799-12.899 26.856l128.345 393.197 180.775-301.319c8.636-14.375 24.153-22.733 39.977-22.733 5.488 0 11.060 1.031 16.381 3.148l323.689 135.755-127.983-392.11zM460.921 754.287l521.458-170.077c3.956-1.143 6.881-3.51 9.221-6.408l-333.719-139.99c-7.773-3.12-17.217 0.362-21.897 8.162l-185.26 308.757c0.975 0.112 1.811 0.613 2.786 0.613 2.452 0 4.959-0.362 7.41-1.059v0zM1023.721 570.225c0 0.195-0.112 0.418-0.112 0.641-0.641 5.488-1.95 10.809-4.29 15.684-5.739 12.007-16.158 20.699-28.806 24.292l-521.43 170.077c-12.926 3.705-26.187 2.786-37.358-2.563-12.007-5.739-20.699-16.13-24.292-28.778l-131.103-401.666c-7.94-27.775 5.766-54.324 31.369-61.651l520.4-169.771c5.962-2.424 12.091-3.649 18.136-3.649 6.603 0 13.122 1.421 19.222 4.346 12.286 5.85 21.562 17.078 25.323 30.366l131.075 401.638c2.034 7.048 2.535 14.18 1.866 21.033v0z" />
<glyph unicode="&#xe93a;" glyph-name="other-topic" d="M657.112 472.642c43.807 0 79.401 35.594 79.401 79.401s-35.594 79.401-79.401 79.401-79.401-35.594-79.401-79.401 38.332-79.401 79.401-79.401zM657.112 601.326c27.38 0 52.021-21.904 52.021-52.021s-21.904-52.021-52.021-52.021-52.021 21.904-52.021 52.021 24.642 52.021 52.021 52.021zM936.385 866.909h-709.134c-38.332 0-71.187-27.38-82.139-65.711-30.118-8.214-57.497-32.856-65.711-65.711-43.807 0-76.663-35.594-76.663-79.401v-547.594c0-43.807 35.594-79.401 79.401-79.401h722.824c21.904 0 41.070 8.214 57.497 24.642 10.952 10.952 19.166 27.38 21.904 43.807 35.594 5.476 65.711 32.856 73.925 68.449 38.332 10.952 68.449 43.807 68.449 82.139v533.904c-5.476 46.545-43.807 84.877-90.353 84.877zM82.139 708.107h720.086c30.118 0 52.021-21.904 52.021-52.021v-476.406l-172.492 180.706c-5.476 5.476-13.69 10.952-21.904 10.952 0 0 0 0 0 0-8.214 0-16.428-2.738-21.904-10.952l-114.995-120.471-177.968 186.182c-10.952 10.952-30.118 13.69-43.807 0l-271.059-251.893v481.882c0 30.118 21.904 52.021 52.021 52.021zM840.556 72.898c-10.952-10.952-21.904-16.428-38.332-16.428h-720.086c-30.118 0-52.021 21.904-52.021 52.021v30.118l290.225 268.321c2.738 2.738 5.476 0 5.476 0l188.92-197.134c2.738-2.738 5.476-5.476 10.952-5.476s8.214 2.738 10.952 5.476l123.209 131.422c0 0 2.738 0 2.738 0s2.738 0 2.738 0l191.658-202.61v-32.856c-2.738-10.952-8.214-24.642-16.428-32.856zM881.626 122.182v19.166c0 2.738 0 2.738 0 5.476v509.262c0 43.807-35.594 79.401-79.401 79.401h-695.444c8.214 21.904 30.118 38.332 54.759 38.332h709.134c32.856 0 57.497-27.38 57.497-57.497v-533.904c0-27.38-19.166-52.021-46.545-60.235zM993.882 245.39c0-21.904-16.428-43.807-38.332-54.759v525.69c0 46.545-38.332 84.877-84.877 84.877h-695.444c8.214 21.904 30.118 38.332 52.021 38.332h709.134c32.856 0 57.497-27.38 57.497-57.497v-536.642z" />
<glyph unicode="&#xe93b;" glyph-name="price" d="M512 896c-247.443 0-448-200.557-448-448s200.557-448 448-448 448 200.557 448 448-200.557 448-448 448zM512 26.047c-231.814 0-421.953 187.537-421.953 421.953 0 231.814 187.537 421.953 421.953 421.953 231.814 0 421.953-187.537 421.953-421.953 0-231.814-190.141-421.953-421.953-421.953zM397.395 487.068h177.117c7.814 0 13.025-5.209 13.025-13.025s-5.209-13.025-13.025-13.025h-182.327c0-5.209 0-7.814 0-13.025 0-10.419 0-18.234 2.605-26.047h179.721c7.814 0 13.025-5.209 13.025-13.025s-7.814-13.025-13.025-13.025h-171.907c20.839-62.512 80.745-106.791 151.068-106.791 13.025 0 28.651 2.605 41.673 5.209 7.814 2.605 13.025-2.605 15.629-7.814s-2.605-13.025-7.814-15.629c-15.629-5.209-31.255-7.814-49.488-7.814-83.349 0-156.279 57.302-179.721 132.839h-54.698c-7.814 0-13.025 5.209-13.025 13.025s5.209 13.025 13.025 13.025h49.488c0 7.814-2.605 18.234-2.605 26.047 0 5.209 0 7.814 0 13.025h-46.883c-7.814 0-13.025 5.209-13.025 13.025s5.209 13.025 13.025 13.025h52.093c18.234 83.349 93.766 148.463 182.327 148.463 15.629 0 33.859-2.605 49.488-7.814 7.814-2.605 10.419-10.419 7.814-15.629-2.605-7.814-7.814-10.419-15.629-7.814-13.025 2.605-28.651 5.209-41.673 5.209-78.141 0-140.651-52.093-156.279-122.419z" />
<glyph unicode="&#xe93c;" glyph-name="sales" d="M512 896c-248.32 0-448-199.68-448-448s199.68-448 448-448c248.32 0 448 202.239 448 448s-199.68 448-448 448zM512 25.599c-232.96 0-422.401 189.441-422.401 422.401s189.441 422.401 422.401 422.401 422.401-189.441 422.401-422.401c0-232.96-189.441-422.401-422.401-422.401zM622.080 606.72l-220.159-348.159c-2.56-5.119-7.679-5.119-10.241-5.119s-5.119 0-7.679 2.56-7.679 12.801-5.119 17.92l220.159 348.159c2.56 5.119 12.801 7.679 17.92 5.119 7.679-7.679 7.679-15.36 5.119-20.48zM424.96 614.399c0 17.92 12.801 30.721 30.721 30.721s30.721-12.801 30.721-30.721-12.801-30.721-30.721-30.721-30.721 12.801-30.721 30.721zM593.921 284.16c0-17.92-12.801-30.721-30.721-30.721s-30.721 12.801-30.721 30.721c0 17.92 12.801 30.721 30.721 30.721s30.721-15.36 30.721-30.721z" />
</font>
</defs>
</svg>
